<?xml version="1.0" encoding="UTF-8" standalone="no"?>
<!DOCTYPE svg PUBLIC "-//W3C//DTD SVG 1.1//EN"
 "http://www.w3.org/Graphics/SVG/1.1/DTD/svg11.dtd">
<!-- Generated by graphviz version 14.0.2 (20251019.1705)
 -->
<!-- Title: register_flow Pages: 1 -->
<svg width="329pt" height="352pt"
 viewBox="0.00 0.00 329.00 352.00" xmlns="http://www.w3.org/2000/svg" xmlns:xlink="http://www.w3.org/1999/xlink">
<g id="graph0" class="graph" transform="scale(1 1) rotate(0) translate(4 347.5)">
<title>register_flow</title>
<polygon fill="white" stroke="none" points="-4,4 -4,-347.5 325,-347.5 325,4 -4,4"/>
<!-- UI -->
<g id="node1" class="node">
<title>UI</title>
<polygon fill="none" stroke="black" points="72,-343.5 0,-343.5 0,-307.5 72,-307.5 72,-343.5"/>
<text xml:space="preserve" text-anchor="middle" x="36" y="-328" font-family="GOST Type A,Arial" font-size="10.00">UI</text>
<text xml:space="preserve" text-anchor="middle" x="36" y="-316" font-family="GOST Type A,Arial" font-size="10.00">Регистрация</text>
</g>
<!-- REG -->
<g id="node2" class="node">
<title>REG</title>
<polygon fill="none" stroke="black" points="180,-343.5 108,-343.5 108,-307.5 180,-307.5 180,-343.5"/>
<text xml:space="preserve" text-anchor="middle" x="144" y="-322" font-family="GOST Type A,Arial" font-size="10.00">POST /register</text>
</g>
<!-- UI&#45;&gt;REG -->
<g id="edge1" class="edge">
<title>UI&#45;&gt;REG</title>
<path fill="none" stroke="black" d="M72.28,-325.5C80.28,-325.5 88.28,-325.5 96.27,-325.5"/>
<polygon fill="black" stroke="black" points="96.07,-329 106.07,-325.5 96.07,-322 96.07,-329"/>
</g>
<!-- DEC -->
<g id="node3" class="node">
<title>DEC</title>
<polygon fill="none" stroke="black" points="80,-270.5 44,-252.5 80,-234.5 116,-252.5 80,-270.5"/>
<text xml:space="preserve" text-anchor="middle" x="80" y="-255" font-family="GOST Type A,Arial" font-size="10.00">Есть</text>
<text xml:space="preserve" text-anchor="middle" x="80" y="-243" font-family="GOST Type A,Arial" font-size="10.00">пользователь?</text>
</g>
<!-- REG&#45;&gt;DEC -->
<g id="edge2" class="edge">
<title>REG&#45;&gt;DEC</title>
<path fill="none" stroke="black" d="M128.51,-307.31C119.37,-297.18 107.77,-284.31 98.2,-273.69"/>
<polygon fill="black" stroke="black" points="101.05,-271.63 91.76,-266.54 95.85,-276.31 101.05,-271.63"/>
</g>
<!-- ERR -->
<g id="node4" class="node">
<title>ERR</title>
<polygon fill="none" stroke="black" points="224,-270.5 152,-270.5 152,-234.5 224,-234.5 224,-270.5"/>
<text xml:space="preserve" text-anchor="middle" x="188" y="-255" font-family="GOST Type A,Arial" font-size="10.00">409</text>
<text xml:space="preserve" text-anchor="middle" x="188" y="-243" font-family="GOST Type A,Arial" font-size="10.00">Conflict</text>
</g>
<!-- REG&#45;&gt;ERR -->
<!-- DEC&#45;&gt;ERR -->
<g id="edge3" class="edge">
<title>DEC&#45;&gt;ERR</title>
<path fill="none" stroke="black" d="M116.87,-252.5C124.42,-252.5 132.47,-252.5 140.34,-252.5"/>
<polygon fill="black" stroke="black" points="140.15,-256 150.15,-252.5 140.15,-249 140.15,-256"/>
<text xml:space="preserve" text-anchor="middle" x="134" y="-258.7" font-family="Times New Roman,serif" font-size="14.00">Да</text>
</g>
<!-- CREATE -->
<g id="node5" class="node">
<title>CREATE</title>
<polygon fill="none" stroke="black" points="169,-182 97,-182 97,-146 169,-146 169,-182"/>
<text xml:space="preserve" text-anchor="middle" x="133" y="-166.5" font-family="GOST Type A,Arial" font-size="10.00">Создать</text>
<text xml:space="preserve" text-anchor="middle" x="133" y="-154.5" font-family="GOST Type A,Arial" font-size="10.00">учет</text>
</g>
<!-- DEC&#45;&gt;CREATE -->
<g id="edge4" class="edge">
<title>DEC&#45;&gt;CREATE</title>
<path fill="none" stroke="black" d="M88.05,-238.36C95.56,-226.11 106.98,-207.46 116.44,-192.03"/>
<polygon fill="black" stroke="black" points="119.27,-194.1 121.51,-183.75 113.3,-190.44 119.27,-194.1"/>
<text xml:space="preserve" text-anchor="middle" x="122.12" y="-203.2" font-family="Times New Roman,serif" font-size="14.00">Нет</text>
</g>
<!-- ERR&#45;&gt;CREATE -->
<!-- SAVE -->
<g id="node6" class="node">
<title>SAVE</title>
<polygon fill="none" stroke="black" points="277,-182 205,-182 205,-146 277,-146 277,-182"/>
<text xml:space="preserve" text-anchor="middle" x="241" y="-166.5" font-family="GOST Type A,Arial" font-size="10.00">Сохранить</text>
<text xml:space="preserve" text-anchor="middle" x="241" y="-154.5" font-family="GOST Type A,Arial" font-size="10.00">БД</text>
</g>
<!-- CREATE&#45;&gt;SAVE -->
<g id="edge5" class="edge">
<title>CREATE&#45;&gt;SAVE</title>
<path fill="none" stroke="black" d="M169.28,-164C177.28,-164 185.28,-164 193.27,-164"/>
<polygon fill="black" stroke="black" points="193.07,-167.5 203.07,-164 193.07,-160.5 193.07,-167.5"/>
</g>
<!-- EVENT -->
<g id="node7" class="node">
<title>EVENT</title>
<polygon fill="none" stroke="black" points="213,-109 141,-109 141,-73 213,-73 213,-109"/>
<text xml:space="preserve" text-anchor="middle" x="177" y="-93.5" font-family="GOST Type A,Arial" font-size="10.00">Событие</text>
<text xml:space="preserve" text-anchor="middle" x="177" y="-81.5" font-family="GOST Type A,Arial" font-size="10.00">UserReg</text>
</g>
<!-- SAVE&#45;&gt;EVENT -->
<g id="edge6" class="edge">
<title>SAVE&#45;&gt;EVENT</title>
<path fill="none" stroke="black" d="M225.51,-145.81C217.8,-137.27 208.34,-126.77 199.83,-117.32"/>
<polygon fill="black" stroke="black" points="202.66,-115.24 193.36,-110.15 197.46,-119.92 202.66,-115.24"/>
</g>
<!-- TOKENS -->
<g id="node8" class="node">
<title>TOKENS</title>
<polygon fill="none" stroke="black" points="321,-109 249,-109 249,-73 321,-73 321,-109"/>
<text xml:space="preserve" text-anchor="middle" x="285" y="-93.5" font-family="GOST Type A,Arial" font-size="10.00">Выдать</text>
<text xml:space="preserve" text-anchor="middle" x="285" y="-81.5" font-family="GOST Type A,Arial" font-size="10.00">токены</text>
</g>
<!-- SAVE&#45;&gt;TOKENS -->
<!-- EVENT&#45;&gt;TOKENS -->
<g id="edge7" class="edge">
<title>EVENT&#45;&gt;TOKENS</title>
<path fill="none" stroke="black" d="M213.28,-91C221.28,-91 229.28,-91 237.27,-91"/>
<polygon fill="black" stroke="black" points="237.07,-94.5 247.07,-91 237.07,-87.5 237.07,-94.5"/>
</g>
<!-- OK -->
<g id="node9" class="node">
<title>OK</title>
<polygon fill="none" stroke="black" points="321,-36 249,-36 249,0 321,0 321,-36"/>
<text xml:space="preserve" text-anchor="middle" x="285" y="-20.5" font-family="GOST Type A,Arial" font-size="10.00">200</text>
<text xml:space="preserve" text-anchor="middle" x="285" y="-8.5" font-family="GOST Type A,Arial" font-size="10.00">Tokens</text>
</g>
<!-- TOKENS&#45;&gt;OK -->
<g id="edge8" class="edge">
<title>TOKENS&#45;&gt;OK</title>
<path fill="none" stroke="black" d="M285,-72.81C285,-65.23 285,-56.1 285,-47.54"/>
<polygon fill="black" stroke="black" points="288.5,-47.54 285,-37.54 281.5,-47.54 288.5,-47.54"/>
</g>
</g>
</svg>
