<?xml version="1.0" encoding="UTF-8" standalone="no"?>
<!DOCTYPE svg PUBLIC "-//W3C//DTD SVG 1.1//EN"
 "http://www.w3.org/Graphics/SVG/1.1/DTD/svg11.dtd">
<!-- Generated by graphviz version 14.0.2 (20251019.1705)
 -->
<!-- Title: register_flow Pages: 1 -->
<svg width="170pt" height="571pt"
 viewBox="0.00 0.00 170.00 571.00" xmlns="http://www.w3.org/2000/svg" xmlns:xlink="http://www.w3.org/1999/xlink">
<g id="graph0" class="graph" transform="scale(1 1) rotate(0) translate(4 566.5)">
<title>register_flow</title>
<polygon fill="white" stroke="none" points="-4,4 -4,-566.5 166,-566.5 166,4 -4,4"/>
<!-- UI -->
<g id="node1" class="node">
<title>UI</title>
<polygon fill="none" stroke="black" points="91,-562.5 19,-562.5 19,-526.5 91,-526.5 91,-562.5"/>
<text xml:space="preserve" text-anchor="middle" x="55" y="-547" font-family="GOST Type A,Arial" font-size="10.00">UI</text>
<text xml:space="preserve" text-anchor="middle" x="55" y="-535" font-family="GOST Type A,Arial" font-size="10.00">Регистрация</text>
</g>
<!-- REG -->
<g id="node2" class="node">
<title>REG</title>
<polygon fill="none" stroke="black" points="91,-489.5 19,-489.5 19,-453.5 91,-453.5 91,-489.5"/>
<text xml:space="preserve" text-anchor="middle" x="55" y="-468" font-family="GOST Type A,Arial" font-size="10.00">POST /register</text>
</g>
<!-- UI&#45;&gt;REG -->
<g id="edge1" class="edge">
<title>UI&#45;&gt;REG</title>
<path fill="none" stroke="black" d="M55,-526.31C55,-518.73 55,-509.6 55,-501.04"/>
<polygon fill="black" stroke="black" points="58.5,-501.04 55,-491.04 51.5,-501.04 58.5,-501.04"/>
</g>
<!-- DEC -->
<g id="node3" class="node">
<title>DEC</title>
<polygon fill="none" stroke="black" points="55,-416.5 19,-398.5 55,-380.5 91,-398.5 55,-416.5"/>
<text xml:space="preserve" text-anchor="middle" x="55" y="-401" font-family="GOST Type A,Arial" font-size="10.00">Есть</text>
<text xml:space="preserve" text-anchor="middle" x="55" y="-389" font-family="GOST Type A,Arial" font-size="10.00">пользователь?</text>
</g>
<!-- REG&#45;&gt;DEC -->
<g id="edge2" class="edge">
<title>REG&#45;&gt;DEC</title>
<path fill="none" stroke="black" d="M55,-453.31C55,-445.84 55,-436.87 55,-428.42"/>
<polygon fill="black" stroke="black" points="58.5,-428.54 55,-418.54 51.5,-428.54 58.5,-428.54"/>
</g>
<!-- ERR -->
<g id="node4" class="node">
<title>ERR</title>
<polygon fill="none" stroke="black" points="72,-328 0,-328 0,-292 72,-292 72,-328"/>
<text xml:space="preserve" text-anchor="middle" x="36" y="-306.5" font-family="GOST Type A,Arial" font-size="10.00">409 Conflict</text>
</g>
<!-- DEC&#45;&gt;ERR -->
<g id="edge3" class="edge">
<title>DEC&#45;&gt;ERR</title>
<path fill="none" stroke="black" d="M51.6,-382.04C49.02,-370.27 45.39,-353.74 42.28,-339.58"/>
<polygon fill="black" stroke="black" points="45.71,-338.91 40.15,-329.89 38.88,-340.41 45.71,-338.91"/>
<text xml:space="preserve" text-anchor="middle" x="55.08" y="-349.2" font-family="Times New Roman,serif" font-size="14.00">Да</text>
</g>
<!-- CREATE -->
<g id="node5" class="node">
<title>CREATE</title>
<polygon fill="none" stroke="black" points="162,-328 90,-328 90,-292 162,-292 162,-328"/>
<text xml:space="preserve" text-anchor="middle" x="126" y="-312.5" font-family="GOST Type A,Arial" font-size="10.00">Создать</text>
<text xml:space="preserve" text-anchor="middle" x="126" y="-300.5" font-family="GOST Type A,Arial" font-size="10.00">учет</text>
</g>
<!-- DEC&#45;&gt;CREATE -->
<g id="edge4" class="edge">
<title>DEC&#45;&gt;CREATE</title>
<path fill="none" stroke="black" d="M65.17,-385.11C75.37,-372.69 91.37,-353.19 104.41,-337.31"/>
<polygon fill="black" stroke="black" points="107.07,-339.58 110.71,-329.63 101.66,-335.14 107.07,-339.58"/>
<text xml:space="preserve" text-anchor="middle" x="107.73" y="-349.2" font-family="Times New Roman,serif" font-size="14.00">Нет</text>
</g>
<!-- SAVE -->
<g id="node6" class="node">
<title>SAVE</title>
<polygon fill="none" stroke="black" points="162,-255 90,-255 90,-219 162,-219 162,-255"/>
<text xml:space="preserve" text-anchor="middle" x="126" y="-239.5" font-family="GOST Type A,Arial" font-size="10.00">Сохранить</text>
<text xml:space="preserve" text-anchor="middle" x="126" y="-227.5" font-family="GOST Type A,Arial" font-size="10.00">БД</text>
</g>
<!-- CREATE&#45;&gt;SAVE -->
<g id="edge5" class="edge">
<title>CREATE&#45;&gt;SAVE</title>
<path fill="none" stroke="black" d="M126,-291.81C126,-284.23 126,-275.1 126,-266.54"/>
<polygon fill="black" stroke="black" points="129.5,-266.54 126,-256.54 122.5,-266.54 129.5,-266.54"/>
</g>
<!-- EVENT -->
<g id="node7" class="node">
<title>EVENT</title>
<polygon fill="none" stroke="black" points="162,-182 90,-182 90,-146 162,-146 162,-182"/>
<text xml:space="preserve" text-anchor="middle" x="126" y="-166.5" font-family="GOST Type A,Arial" font-size="10.00">Событие</text>
<text xml:space="preserve" text-anchor="middle" x="126" y="-154.5" font-family="GOST Type A,Arial" font-size="10.00">UserReg</text>
</g>
<!-- SAVE&#45;&gt;EVENT -->
<g id="edge6" class="edge">
<title>SAVE&#45;&gt;EVENT</title>
<path fill="none" stroke="black" d="M126,-218.81C126,-211.23 126,-202.1 126,-193.54"/>
<polygon fill="black" stroke="black" points="129.5,-193.54 126,-183.54 122.5,-193.54 129.5,-193.54"/>
</g>
<!-- TOKENS -->
<g id="node8" class="node">
<title>TOKENS</title>
<polygon fill="none" stroke="black" points="162,-109 90,-109 90,-73 162,-73 162,-109"/>
<text xml:space="preserve" text-anchor="middle" x="126" y="-93.5" font-family="GOST Type A,Arial" font-size="10.00">Выдать</text>
<text xml:space="preserve" text-anchor="middle" x="126" y="-81.5" font-family="GOST Type A,Arial" font-size="10.00">токены</text>
</g>
<!-- EVENT&#45;&gt;TOKENS -->
<g id="edge7" class="edge">
<title>EVENT&#45;&gt;TOKENS</title>
<path fill="none" stroke="black" d="M126,-145.81C126,-138.23 126,-129.1 126,-120.54"/>
<polygon fill="black" stroke="black" points="129.5,-120.54 126,-110.54 122.5,-120.54 129.5,-120.54"/>
</g>
<!-- OK -->
<g id="node9" class="node">
<title>OK</title>
<polygon fill="none" stroke="black" points="162,-36 90,-36 90,0 162,0 162,-36"/>
<text xml:space="preserve" text-anchor="middle" x="126" y="-14.5" font-family="GOST Type A,Arial" font-size="10.00">200 Tokens</text>
</g>
<!-- TOKENS&#45;&gt;OK -->
<g id="edge8" class="edge">
<title>TOKENS&#45;&gt;OK</title>
<path fill="none" stroke="black" d="M126,-72.81C126,-65.23 126,-56.1 126,-47.54"/>
<polygon fill="black" stroke="black" points="129.5,-47.54 126,-37.54 122.5,-47.54 129.5,-47.54"/>
</g>
</g>
</svg>
