<?xml version="1.0" encoding="UTF-8" standalone="no"?>
<!DOCTYPE svg PUBLIC "-//W3C//DTD SVG 1.1//EN"
 "http://www.w3.org/Graphics/SVG/1.1/DTD/svg11.dtd">
<!-- Generated by graphviz version 14.0.2 (20251019.1705)
 -->
<!-- Title: register_flow Pages: 1 -->
<svg width="346pt" height="367pt"
 viewBox="0.00 0.00 346.00 367.00" xmlns="http://www.w3.org/2000/svg" xmlns:xlink="http://www.w3.org/1999/xlink">
<g id="graph0" class="graph" transform="scale(1 1) rotate(0) translate(4 363)">
<title>register_flow</title>
<polygon fill="white" stroke="none" points="-4,4 -4,-363 342,-363 342,4 -4,4"/>
<!-- UI -->
<g id="node1" class="node">
<title>UI</title>
<polygon fill="none" stroke="black" points="72,-359 0,-359 0,-323 72,-323 72,-359"/>
<text xml:space="preserve" text-anchor="middle" x="36" y="-343.5" font-family="GOST Type A,Arial" font-size="10.00">UI</text>
<text xml:space="preserve" text-anchor="middle" x="36" y="-331.5" font-family="GOST Type A,Arial" font-size="10.00">Регистрация</text>
</g>
<!-- REG -->
<g id="node2" class="node">
<title>REG</title>
<polygon fill="none" stroke="black" points="180,-359 108,-359 108,-323 180,-323 180,-359"/>
<text xml:space="preserve" text-anchor="middle" x="144" y="-337.5" font-family="GOST Type A,Arial" font-size="10.00">POST /register</text>
</g>
<!-- UI&#45;&gt;REG -->
<g id="edge1" class="edge">
<title>UI&#45;&gt;REG</title>
<path fill="none" stroke="black" d="M72.28,-341C80.28,-341 88.28,-341 96.27,-341"/>
<polygon fill="black" stroke="black" points="96.07,-344.5 106.07,-341 96.07,-337.5 96.07,-344.5"/>
</g>
<!-- VALID -->
<g id="node3" class="node">
<title>VALID</title>
<polygon fill="none" stroke="black" points="77,-286 41,-268 77,-250 113,-268 77,-286"/>
<text xml:space="preserve" text-anchor="middle" x="77" y="-270.5" font-family="GOST Type A,Arial" font-size="10.00">Валидация</text>
<text xml:space="preserve" text-anchor="middle" x="77" y="-258.5" font-family="GOST Type A,Arial" font-size="10.00">данных?</text>
</g>
<!-- REG&#45;&gt;VALID -->
<g id="edge2" class="edge">
<title>REG&#45;&gt;VALID</title>
<path fill="none" stroke="black" d="M127.78,-322.81C118.22,-312.68 106.07,-299.81 96.06,-289.19"/>
<polygon fill="black" stroke="black" points="98.69,-286.89 89.29,-282.02 93.6,-291.69 98.69,-286.89"/>
</g>
<!-- ERR_VALID -->
<g id="node4" class="node">
<title>ERR_VALID</title>
<polygon fill="none" stroke="black" points="225,-286 153,-286 153,-250 225,-250 225,-286"/>
<text xml:space="preserve" text-anchor="middle" x="189" y="-270.5" font-family="GOST Type A,Arial" font-size="10.00">400</text>
<text xml:space="preserve" text-anchor="middle" x="189" y="-258.5" font-family="GOST Type A,Arial" font-size="10.00">Bad Request</text>
</g>
<!-- REG&#45;&gt;ERR_VALID -->
<!-- VALID&#45;&gt;ERR_VALID -->
<g id="edge3" class="edge">
<title>VALID&#45;&gt;ERR_VALID</title>
<path fill="none" stroke="black" d="M113.98,-268C122.76,-268 132.25,-268 141.43,-268"/>
<polygon fill="black" stroke="black" points="141.3,-271.5 151.3,-268 141.3,-264.5 141.3,-271.5"/>
<text xml:space="preserve" text-anchor="middle" x="133" y="-274.2" font-family="Times New Roman,serif" font-size="14.00">Нет</text>
</g>
<!-- CREATE -->
<g id="node5" class="node">
<title>CREATE</title>
<polygon fill="none" stroke="black" points="168,-197.5 96,-197.5 96,-161.5 168,-161.5 168,-197.5"/>
<text xml:space="preserve" text-anchor="middle" x="132" y="-182" font-family="GOST Type A,Arial" font-size="10.00">Создать</text>
<text xml:space="preserve" text-anchor="middle" x="132" y="-170" font-family="GOST Type A,Arial" font-size="10.00">учет + хеш</text>
</g>
<!-- VALID&#45;&gt;CREATE -->
<g id="edge4" class="edge">
<title>VALID&#45;&gt;CREATE</title>
<path fill="none" stroke="black" d="M85.35,-253.86C93.14,-241.61 105,-222.96 114.81,-207.53"/>
<polygon fill="black" stroke="black" points="117.68,-209.55 120.09,-199.23 111.77,-205.79 117.68,-209.55"/>
<text xml:space="preserve" text-anchor="middle" x="117.3" y="-218.7" font-family="Times New Roman,serif" font-size="14.00">Да</text>
</g>
<!-- ERR_VALID&#45;&gt;CREATE -->
<!-- DEC -->
<g id="node6" class="node">
<title>DEC</title>
<polygon fill="none" stroke="black" points="240,-197.5 204,-179.5 240,-161.5 276,-179.5 240,-197.5"/>
<text xml:space="preserve" text-anchor="middle" x="240" y="-182" font-family="GOST Type A,Arial" font-size="10.00">Успех</text>
<text xml:space="preserve" text-anchor="middle" x="240" y="-170" font-family="GOST Type A,Arial" font-size="10.00">создания?</text>
</g>
<!-- CREATE&#45;&gt;DEC -->
<g id="edge5" class="edge">
<title>CREATE&#45;&gt;DEC</title>
<path fill="none" stroke="black" d="M168.28,-179.5C176.06,-179.5 183.84,-179.5 191.62,-179.5"/>
<polygon fill="black" stroke="black" points="191.51,-183 201.51,-179.5 191.51,-176 191.51,-183"/>
</g>
<!-- ERR_EXIST -->
<g id="node7" class="node">
<title>ERR_EXIST</title>
<polygon fill="none" stroke="black" points="186,-109 114,-109 114,-73 186,-73 186,-109"/>
<text xml:space="preserve" text-anchor="middle" x="150" y="-93.5" font-family="GOST Type A,Arial" font-size="10.00">400</text>
<text xml:space="preserve" text-anchor="middle" x="150" y="-81.5" font-family="GOST Type A,Arial" font-size="10.00">Ошибки</text>
</g>
<!-- CREATE&#45;&gt;ERR_EXIST -->
<!-- DEC&#45;&gt;ERR_EXIST -->
<g id="edge6" class="edge">
<title>DEC&#45;&gt;ERR_EXIST</title>
<path fill="none" stroke="black" d="M228.23,-167.19C215.05,-154.52 193.26,-133.58 176.03,-117.01"/>
<polygon fill="black" stroke="black" points="178.71,-114.74 169.08,-110.34 173.86,-119.79 178.71,-114.74"/>
<text xml:space="preserve" text-anchor="middle" x="213.94" y="-130.2" font-family="Times New Roman,serif" font-size="14.00">Нет</text>
</g>
<!-- SAVE -->
<g id="node8" class="node">
<title>SAVE</title>
<polygon fill="none" stroke="black" points="276,-109 204,-109 204,-73 276,-73 276,-109"/>
<text xml:space="preserve" text-anchor="middle" x="240" y="-93.5" font-family="GOST Type A,Arial" font-size="10.00">Сохранить</text>
<text xml:space="preserve" text-anchor="middle" x="240" y="-81.5" font-family="GOST Type A,Arial" font-size="10.00">БД</text>
</g>
<!-- DEC&#45;&gt;SAVE -->
<g id="edge7" class="edge">
<title>DEC&#45;&gt;SAVE</title>
<path fill="none" stroke="black" d="M240,-161C240,-149.51 240,-134.2 240,-120.93"/>
<polygon fill="black" stroke="black" points="243.5,-120.99 240,-110.99 236.5,-120.99 243.5,-120.99"/>
<text xml:space="preserve" text-anchor="middle" x="247.88" y="-130.2" font-family="Times New Roman,serif" font-size="14.00">Да</text>
</g>
<!-- TOKENS -->
<g id="node9" class="node">
<title>TOKENS</title>
<polygon fill="none" stroke="black" points="230,-36 158,-36 158,0 230,0 230,-36"/>
<text xml:space="preserve" text-anchor="middle" x="194" y="-20.5" font-family="GOST Type A,Arial" font-size="10.00">Выдать</text>
<text xml:space="preserve" text-anchor="middle" x="194" y="-8.5" font-family="GOST Type A,Arial" font-size="10.00">токены</text>
</g>
<!-- ERR_EXIST&#45;&gt;TOKENS -->
<!-- SAVE&#45;&gt;TOKENS -->
<g id="edge8" class="edge">
<title>SAVE&#45;&gt;TOKENS</title>
<path fill="none" stroke="black" d="M228.86,-72.81C223.55,-64.62 217.08,-54.62 211.16,-45.48"/>
<polygon fill="black" stroke="black" points="214.23,-43.79 205.86,-37.3 208.36,-47.59 214.23,-43.79"/>
</g>
<!-- OK -->
<g id="node10" class="node">
<title>OK</title>
<polygon fill="none" stroke="black" points="338,-36 266,-36 266,0 338,0 338,-36"/>
<text xml:space="preserve" text-anchor="middle" x="302" y="-20.5" font-family="GOST Type A,Arial" font-size="10.00">200</text>
<text xml:space="preserve" text-anchor="middle" x="302" y="-8.5" font-family="GOST Type A,Arial" font-size="10.00">Tokens</text>
</g>
<!-- TOKENS&#45;&gt;OK -->
<g id="edge9" class="edge">
<title>TOKENS&#45;&gt;OK</title>
<path fill="none" stroke="black" d="M230.28,-18C238.28,-18 246.28,-18 254.27,-18"/>
<polygon fill="black" stroke="black" points="254.07,-21.5 264.07,-18 254.07,-14.5 254.07,-21.5"/>
</g>
</g>
</svg>
