<svg xmlns="http://www.w3.org/2000/svg" version="1.1" xmlns:xlink="http://www.w3.org/1999/xlink" xmlns:svgjs="http://svgjs.dev/svgjs" viewBox="0 0 800 800"><g transform="matrix(1,0,0,1,0,0)"><path d="M680.3803491661405 635.7761454627391C681.8632656549771 632.7796203137285 686.1367466693748 632.7796203137285 687.6196631582113 635.7761454627391L733.5759397595543 728.641771354329C734.9041838586239 731.325720968928 732.9511925350907 734.4712646866698 729.9566866078787 734.4712646866698H638.0433257164732C635.048819789261 734.4712646866698 633.0958284657279 731.325720968928 634.4240725647974 728.641771354329L680.3803491661405 635.7761454627391Z " stroke-width="4" stroke="#f5a525" fill="none" opacity="0.1" transform="rotate(100, 400, 400)"></path><path d="M675.5263557187488 629.4353370872133C677.0587027572133 626.3389277665689 681.4746331387576 626.3389277665689 683.006980177222 629.4353370872133L730.4951326652765 725.396483841856C731.8676515676483 728.1698984436084 729.8495605333308 731.4202936186082 726.7552377418783 731.4202936186082H631.7780981540925C628.68377536264 731.4202936186082 626.6656843283224 728.1698984436084 628.0382032306943 725.396483841856L675.5263557187488 629.4353370872133Z " stroke-width="4.2" stroke="#f3a531" fill="none" opacity="0.115" transform="rotate(98.33333333333333, 400, 400)"></path><path d="M670.6723622713571 623.0945439704764C672.2541398594494 619.8982504781984 676.8125196081403 619.8982504781984 678.3942971962326 623.0945439704764L727.4143255709986 722.1512115881723C728.8311192766728 725.0140911770778 726.7479285315708 728.3693378093358 723.5537888758779 728.3693378093358H625.5128705917119C622.3187309360189 728.3693378093358 620.2355401909169 725.0140911770778 621.6523338965912 722.1512115881723L670.6723622713571 623.0945439704764Z " stroke-width="4.4" stroke="#f2a53b" fill="none" opacity="0.13" transform="rotate(96.66666666666667, 400, 400)"></path><path d="M665.8183840827545 616.7537508537396C667.4495922204746 613.4575731898278 672.1504213363121 613.4575731898278 673.7816294740323 616.7537508537396L724.3335337355097 718.9059393344884C725.7946022444862 721.8582839105472 723.6463117885999 725.3183820000633 720.3523552686665 725.3183820000633H619.2476582881204C615.9537017681871 725.3183820000633 613.8054113123006 721.8582839105472 615.2664798212771 718.9059393344884L665.8183840827545 616.7537508537396Z " stroke-width="4.6" stroke="#f0a443" fill="none" opacity="0.14500000000000002" transform="rotate(95, 400, 400)"></path><path d="M660.9643906353629 610.4129577370029C662.645029322711 607.0168959014575 667.4883078056951 607.0168959014575 669.1689464930432 610.4129577370029L721.2527266412319 715.6606670808046C722.7580699535108 718.7024766440169 720.5446797868399 722.267426190791 717.1509064026661 722.267426190791H612.98243072574C609.5886573415662 722.267426190791 607.3752671748953 718.7024766440169 608.8806104871742 715.6606670808046L660.9643906353629 610.4129577370029Z " stroke-width="4.8" stroke="#eea44b" fill="none" opacity="0.16" transform="rotate(93.33333333333333, 400, 400)"></path><path d="M656.1103971879713 604.072164620266C657.8404664249472 600.5762186130869 662.8261942750778 600.5762186130869 664.5562635120539 604.072164620266L718.1719195469541 712.4153948271208C719.7215376625352 715.5466693774863 717.4430477850799 719.2164703815184 713.9494575366658 719.2164703815184H606.7172031633593C603.2236129149451 719.2164703815184 600.9451230374898 715.5466693774863 602.494741153071 712.4153948271208L656.1103971879713 604.072164620266Z " stroke-width="5" stroke="#eda452" fill="none" opacity="0.17500000000000002" transform="rotate(91.66666666666667, 400, 400)"></path><path d="M651.2564189993686 597.7313715035292C653.0359187859725 594.1355413247163 658.1640960032497 594.1355413247163 659.9435957898536 597.7313715035292L715.0911277114652 709.170122573437C716.6850206303487 712.3908621109558 714.341431042109 716.1655145722459 710.7480239294545 716.1655145722459H600.4519908597678C596.8585837471132 716.1655145722459 594.5149941588735 712.3908621109558 596.1088870777569 709.170122573437L651.2564189993686 597.7313715035292Z " stroke-width="5.2" stroke="#eba458" fill="none" opacity="0.19" transform="rotate(90, 400, 400)"></path><path d="M646.4024255519769 591.3905783867923C648.2313558882088 587.6948640363458 653.5019824726326 587.6948640363458 655.3309128088642 591.3905783867923L712.0103206171874 705.9248503197532C713.6484883393732 709.2350548444253 711.239799040349 713.1145587629735 707.546575063454 713.1145587629735H594.1867632973872C590.4935393204921 713.1145587629735 588.0848500214681 709.2350548444253 589.7230177436538 705.9248503197532L646.4024255519769 591.3905783867923Z " stroke-width="5.4" stroke="#e9a35e" fill="none" opacity="0.20500000000000002" transform="rotate(88.33333333333333, 400, 400)"></path><path d="M641.5484321045853 585.0497700112664C643.4267929904449 581.2541714891863 648.8398689420153 581.2541714891863 650.7182298278749 585.0497700112664L708.9295135229095 702.6795628072803C710.6119560483976 706.0792323191057 708.138167038589 710.0635876949119 704.3451261974536 710.0635876949119H587.9215357350065C584.1284948938712 710.0635876949119 581.6547058840627 706.0792323191057 583.3371484095508 702.6795628072803L641.5484321045853 585.0497700112664Z " stroke-width="5.6" stroke="#e7a363" fill="none" opacity="0.22000000000000003" transform="rotate(86.66666666666667, 400, 400)"></path><path d="M636.6944539159826 578.7089768945295C638.6222453514702 574.8134942008157 644.1777706701871 574.8134942008157 646.1055621056746 578.7089768945295L705.8487216874206 699.4342905535964C707.575439016211 702.9234250525751 705.036550295618 707.0126318856394 701.1436925902423 707.0126318856394H581.6563234314151C577.7634657260392 707.0126318856394 575.2245770054462 702.9234250525751 576.9512943342366 699.4342905535964L636.6944539159826 578.7089768945295Z " stroke-width="5.8" stroke="#e6a368" fill="none" opacity="0.23500000000000001" transform="rotate(85, 400, 400)"></path><path d="M631.8404604685909 572.3681837777928C633.8176824537063 568.3728169124452 639.51565713957 568.3728169124452 641.4928791246853 572.3681837777928L702.7679145931427 696.1890182999125C704.5389067252355 699.7676177860446 701.934918293858 703.961676076367 697.9422437242418 703.961676076367H575.3910958690344C571.3984212994183 703.961676076367 568.7944328680408 699.7676177860446 570.5654250001335 696.1890182999125L631.8404604685909 572.3681837777928Z " stroke-width="6" stroke="#e4a36d" fill="none" opacity="0.25" transform="rotate(83.33333333333333, 400, 400)"></path><path d="M626.9864670211994 566.027390661056C629.0131195559426 561.9321396240747 634.8535436089527 561.9321396240747 636.880196143696 566.027390661056L699.6871074988649 692.9437460462287C701.5023744342599 696.611810519514 698.833286292098 700.9107202670945 694.7407948582414 700.9107202670945H569.1258683066538C565.0333768727972 700.9107202670945 562.3642887306353 696.611810519514 564.1795556660304 692.9437460462287L626.9864670211994 566.027390661056Z " stroke-width="6.2" stroke="#e2a372" fill="none" opacity="0.265" transform="rotate(81.66666666666666, 400, 400)"></path><path d="M622.1324888325968 559.6865975443192C624.2085719169679 555.4914623357042 630.1914453371246 555.4914623357042 632.2675284214959 559.6865975443192L696.6063156633761 689.698473792545C698.4658574020735 693.4560032529836 695.7316695491272 697.8597644578222 691.5393612510302 697.8597644578222H562.8606560030623C558.6683477049654 697.8597644578222 555.9341598520191 693.4560032529836 557.7937015907164 689.698473792545L622.1324888325968 559.6865975443192Z " stroke-width="6.4" stroke="#e0a277" fill="none" opacity="0.28" transform="rotate(80, 400, 400)"></path><path d="M617.2784953852051 553.3458044275824C619.4040090192041 549.0507850473338 625.5293318065075 549.0507850473338 627.6548454405065 553.3458044275824L693.5255085690983 686.4532015388611C695.429325111098 690.3001959864531 692.6300375473672 694.8088086485496 688.3379123850298 694.8088086485496H556.5954284406819C552.3033032783444 694.8088086485496 549.5040157146136 690.3001959864531 551.4078322566133 686.4532015388611L617.2784953852051 553.3458044275824Z " stroke-width="6.6" stroke="#dea27b" fill="none" opacity="0.29500000000000004" transform="rotate(78.33333333333333, 400, 400)"></path><path d="M612.4245019378134 547.0050113108455C614.5994461214403 542.6101077589633 620.8672182758903 542.6101077589633 623.0421624595172 547.0050113108455L690.4447014748204 683.2079292851773C692.3927928201224 687.1443887199225 689.5284055456071 691.7578528392771 685.1364635190293 691.7578528392771H550.3302008783012C545.9382588517234 691.7578528392771 543.0738715772081 687.1443887199225 545.0219629225103 683.2079292851773L612.4245019378134 547.0050113108455Z " stroke-width="6.800000000000001" stroke="#dda27f" fill="none" opacity="0.31000000000000005" transform="rotate(76.66666666666666, 400, 400)"></path><path d="M607.5705237492108 540.6642029353196C609.7948984824657 536.1694152118037 616.2051200040621 536.1694152118037 618.4294947373169 540.6642029353196L687.3639096393315 679.9626417727044C689.3562757879358 683.988566194603 686.4267888026362 688.7068817712156 681.935029911818 688.7068817712156H544.0649885747097C539.5732296838914 688.7068817712156 536.6437426985918 683.988566194603 538.6361088471962 679.9626417727044L607.5705237492108 540.6642029353196Z " stroke-width="7" stroke="#dba283" fill="none" opacity="0.325" transform="rotate(75, 400, 400)"></path><path d="M602.7165303018191 534.3234098185828C604.9903355847018 529.7287379234331 611.5430064734448 529.7287379234331 613.8168117563276 534.3234098185828L684.2831025450537 676.7173695190205C686.3197434969603 680.8327589280724 683.3251568008762 685.6559259619431 678.7335810458176 685.6559259619431H537.7997610123291C533.2081852572704 685.6559259619431 530.2135985611865 680.8327589280724 532.250239513093 676.7173695190205L602.7165303018191 534.3234098185828Z " stroke-width="7.2" stroke="#d9a187" fill="none" opacity="0.34" transform="rotate(73.33333333333333, 400, 400)"></path><path d="M597.8625368544274 527.9826167018459C600.185772686938 523.2880606350626 606.8808929428277 523.2880606350626 609.2041287753383 527.9826167018459L681.2022954507758 673.4720972653367C683.2832112059848 677.6769516615419 680.2235247991163 682.6049701526706 675.5321321798172 682.6049701526706H531.5345334499484C526.8431408306494 682.6049701526706 523.783454423781 677.6769516615419 525.8643701789899 673.4720972653367L597.8625368544274 527.9826167018459Z " stroke-width="7.4" stroke="#d7a18b" fill="none" opacity="0.355" transform="rotate(71.66666666666666, 400, 400)"></path><path d="M593.0085586658248 521.6418235851091C595.3812250479632 516.8473833466921 602.2187946709995 516.8473833466921 604.591461053138 521.6418235851091L678.1215036152869 670.2268250116529C680.2466941737982 674.5211443950113 677.1219080561452 679.5540143433982 672.3306985726058 679.5540143433982H525.269321146357C520.4781116628176 679.5540143433982 517.3533255451646 674.5211443950113 519.4785161036759 670.2268250116529L593.0085586658248 521.6418235851091Z " stroke-width="7.6" stroke="#d5a18f" fill="none" opacity="0.37" transform="rotate(70, 400, 400)"></path><path d="M588.1545652184332 515.3010304683723C590.5766621501995 510.40670605832156 597.5566811403824 510.40670605832156 599.9787780721487 515.3010304683723L675.0406965210091 666.981552757969C677.2101618828226 671.3653371284807 674.0202760543852 676.5030585341257 669.1292497066054 676.5030585341257H519.0040935839763C514.1130672361965 676.5030585341257 510.92318140775916 671.3653371284807 513.0926467695728 666.981552757969L588.1545652184332 515.3010304683723Z " stroke-width="7.800000000000001" stroke="#d3a193" fill="none" opacity="0.385" transform="rotate(68.33333333333333, 400, 400)"></path><path d="M583.3005717710415 508.96023735163556C585.7720992524357 503.96602876995115 592.8945676097652 503.96602876995115 595.3660950911594 508.96023735163556L671.9598894267313 663.7362805042853C674.1736295918472 668.2095298619504 670.9186440526254 673.4521027248534 665.9278008406052 673.4521027248534H512.7388660215959C507.7480228095756 673.4521027248534 504.49303727035385 668.2095298619504 506.70677743546975 663.7362805042853L583.3005717710415 508.96023735163556Z " stroke-width="8" stroke="#d1a096" fill="none" opacity="0.4" transform="rotate(66.66666666666666, 400, 400)"></path><path d="M578.4465935824389 502.61944423489876C580.967551613461 497.5253514815806 588.2324693379371 497.5253514815806 590.7534273689591 502.61944423489876L668.8790975912424 660.4910082506015C671.1371125596606 665.0537225954198 667.8170273096543 670.4011469155809 662.7263672333938 670.4011469155809H506.4736537180043C501.38299364174367 670.4011469155809 498.06290839173744 665.0537225954198 500.3209233601557 660.4910082506015L578.4465935824389 502.61944423489876Z " stroke-width="8.2" stroke="#cfa09a" fill="none" opacity="0.41500000000000004" transform="rotate(65, 400, 400)"></path><path d="M573.5926001350472 496.2786358593728C576.1629887156972 491.08465893442104 583.5703558073199 491.08465893442104 586.1407443879699 496.2786358593728L665.7982904969646 657.2457207381285C668.1005802686851 661.8979000701003 664.7153953078944 667.3501758475193 659.5249183673934 667.3501758475193H500.2084261556237C495.01794921512266 667.3501758475193 491.632764254332 661.8979000701003 493.93505402605257 657.2457207381285L573.5926001350472 496.2786358593728Z " stroke-width="8.4" stroke="#cda09d" fill="none" opacity="0.43000000000000005" transform="rotate(63.33333333333333, 400, 400)"></path><path d="M568.7386066876555 489.937842742636C571.3584258179335 484.6439816460505 578.9082422767026 484.6439816460505 581.5280614069806 489.937842742636L662.7174834026866 654.0004484844447C665.0640479777095 658.7420928035697 661.6137633061344 664.2992200382469 656.323469501393 664.2992200382469H493.9431985932431C488.65290478850164 664.2992200382469 485.2026201169266 658.7420928035697 487.54918469194945 654.0004484844447L568.7386066876555 489.937842742636Z " stroke-width="8.600000000000001" stroke="#cba0a1" fill="none" opacity="0.44500000000000006" transform="rotate(61.666666666666664, 400, 400)"></path><path d="M563.8846132402639 483.59704962589916C566.5538629201696 478.20330435768 574.2461287460854 478.20330435768 576.9153784259912 483.59704962589916L659.6366763084087 650.7551762307609C662.027515686734 655.5862855370392 658.5121313043744 661.2482642289743 653.1220206353926 661.2482642289743H487.6779710308625C482.28786036188063 661.2482642289743 478.7724759795211 655.5862855370392 481.16331535784633 650.7551762307609L563.8846132402639 483.59704962589916Z " stroke-width="8.8" stroke="#c9a0a4" fill="none" opacity="0.4600000000000001" transform="rotate(60, 400, 400)"></path><path d="M559.0306350516612 477.2562565091623C561.7493152811949 471.7626270693095 569.5840304742574 471.7626270693095 572.302710703791 477.2562565091623L656.55588447292 647.509903977077C658.9909986545474 652.4304782705086 655.4105145614035 658.1973084197018 649.9205870281812 658.1973084197018H481.41275872727095C475.92283119404874 658.1973084197018 472.34234710090476 652.4304782705086 474.7774612825323 647.509903977077L559.0306350516612 477.2562565091623Z " stroke-width="9" stroke="#c79fa7" fill="none" opacity="0.4750000000000001" transform="rotate(58.33333333333333, 400, 400)"></path><path d="M554.1766416042697 470.91546339242564C556.9447523834313 465.321949780939 564.9219169436402 465.321949780939 567.6900277228018 470.91546339242564L653.4750773786421 644.2646317233933C655.954466363572 649.2746710039783 652.3088825596435 655.1463526104295 646.7191381621809 655.1463526104295H475.1475311648905C469.55778676742784 655.1463526104295 465.91220296349945 649.2746710039783 468.39159194842927 644.2646317233933L554.1766416042697 470.91546339242564Z " stroke-width="9.2" stroke="#c59faa" fill="none" opacity="0.49" transform="rotate(56.666666666666664, 400, 400)"></path><path d="M549.322663415667 464.57467027568873C552.1402047444565 458.88127249256854 560.2598186718121 458.88127249256854 563.0773600006015 464.57467027568873L650.3942855431533 641.0193594697095C652.9179493313854 646.1188637374476 649.2072658166726 652.095396801157 643.5177045549696 652.095396801157H468.8823188612989C463.1927575995959 652.095396801157 459.48207408488304 646.1188637374476 462.0057378731152 641.0193594697095L549.322663415667 464.57467027568873Z " stroke-width="9.4" stroke="#c39fad" fill="none" opacity="0.505" transform="rotate(55, 400, 400)"></path><path d="M544.4686699682753 458.2338619001629C547.3356418466926 452.4405799454089 555.5977051411949 452.4405799454089 558.4646770196122 458.2338619001629L647.3134784488755 637.7740719572366C649.8814170404099 642.963041212128 646.1056338149126 649.0444257330955 640.3162556889691 649.0444257330955H462.61709129891835C456.8277131729749 649.0444257330955 453.0519299474776 642.963041212128 455.61986853901203 637.7740719572366L544.4686699682753 458.2338619001629Z " stroke-width="9.600000000000001" stroke="#c19fb0" fill="none" opacity="0.52" transform="rotate(53.33333333333333, 400, 400)"></path><path d="M539.6146612620946 451.89306878342603C542.5310636901398 445.99990265703843 550.9355763517885 445.99990265703843 553.8519787798338 451.89306878342603L644.2326560958086 634.5287997035527C646.8448694906452 639.8072339455975 643.0039865543636 645.993469923823 637.1147915641797 645.993469923823H456.3518484777487C450.4626534875648 645.993469923823 446.62177055128313 639.8072339455975 449.23398394611985 634.5287997035527L539.6146612620946 451.89306878342603Z " stroke-width="9.8" stroke="#bf9eb3" fill="none" opacity="0.535" transform="rotate(51.666666666666664, 400, 400)"></path><path d="M534.7606830734919 445.5522756666892C537.726516051165 439.55922536866785 546.2734780799603 439.55922536866785 549.2393110576336 445.5522756666892L641.1518642603196 631.2835274498689C643.8083524584588 636.6514266790668 639.9023698113925 642.9425141145505 633.9133579569683 642.9425141145505H450.08663617415715C444.09762431973286 642.9425141145505 440.1916416726667 636.6514266790668 442.8481298708058 631.2835274498689L534.7606830734919 445.5522756666892Z " stroke-width="10" stroke="#bd9eb6" fill="none" opacity="0.55" transform="rotate(50, 400, 400)"></path><path d="M529.9067048848893 439.2114825499524C532.9219684121904 433.1185480802974 541.6113798081323 433.1185480802974 544.6266433354333 439.2114825499524L638.0710724248308 628.038255196185C640.7718354262722 633.4956194125364 636.8007530684216 639.8915583052781 630.7119243497569 639.8915583052781H443.82142387056564C437.7325951519009 639.8915583052781 433.76151279405036 633.4956194125364 436.46227579549173 628.038255196185L529.9067048848893 439.2114825499524Z " stroke-width="10.2" stroke="#bb9eb9" fill="none" opacity="0.5650000000000001" transform="rotate(48.33333333333333, 400, 400)"></path><path d="M525.0527114374977 432.8706894332155C528.1174055144265 426.6778707919268 536.9492662775151 426.6778707919268 540.013960354444 432.8706894332155L634.9902653305529 624.7929829425012C637.7353031352967 630.3398121460059 633.6991210666616 636.8406024960055 627.5104754837565 636.8406024960055H437.556196308185C431.36755072527995 636.8406024960055 427.33136865664494 630.3398121460059 430.0764064613886 624.7929829425012L525.0527114374977 432.8706894332155Z " stroke-width="10.4" stroke="#b99ebc" fill="none" opacity="0.5800000000000001" transform="rotate(46.666666666666664, 400, 400)"></path><path d="M520.198733248895 426.5298963164787C523.3128578754518 420.23719350355634 532.2871680056869 420.23719350355634 535.4012926322437 426.5298963164787L631.909473495064 621.5477106888173C634.6987861031101 627.1840048794753 630.5975043236906 633.789646686733 624.3090418765452 633.789646686733H431.2909840045935C425.002521557448 633.789646686733 420.9012397780285 627.1840048794753 423.69055238607456 621.5477106888173L520.198733248895 426.5298963164787Z " stroke-width="10.600000000000001" stroke="#b79dbf" fill="none" opacity="0.5950000000000001" transform="rotate(45, 400, 400)"></path><path d="M515.3447245427143 420.18910319974185C518.5082797188988 413.79651621518576 527.6250392162806 413.79651621518576 530.7885943924653 420.18910319974185L628.8286511419972 618.3024384351336C631.6622385533456 624.0281976129447 627.4958570631416 630.7386908774606 621.1075777517557 630.7386908774606H425.0257411834238C418.63746187203793 630.7386908774606 414.47108038183404 624.0281976129447 417.3046677931824 618.3024384351336L515.3447245427143 420.18910319974185Z " stroke-width="10.8" stroke="#b49dc1" fill="none" opacity="0.61" transform="rotate(43.33333333333333, 400, 400)"></path><path d="M510.49074635411176 413.8482871948215C513.7037320799243 407.3558160386318 522.9629409444526 407.3558160386318 526.1759266702652 413.8482871948215L625.7478593065084 615.0571432932662C628.6257215211591 620.8723674582308 624.3942403201708 627.6877121800046 617.9061441445444 627.6877121800046H418.7605288798324C412.2724327042061 627.6877121800046 408.0409515032178 620.8723674582308 410.91881371786843 615.0571432932662L510.49074635411176 413.8482871948215Z " stroke-width="11" stroke="#b29dc4" fill="none" opacity="0.625" transform="rotate(41.666666666666664, 400, 400)"></path><path d="M505.63675290672006 407.50750170747926C508.8991691821605 400.91514637965577 518.3008274138353 400.91514637965577 521.5632436892759 407.50750170747926L622.6670522122306 611.8118786689769C625.5891892301836 617.7165678210947 621.2926083184108 624.6367640001266 614.704695278544 624.6367640001266H412.4953013174518C405.9073882775851 624.6367640001266 401.6108073658123 617.7165678210947 404.5329443837653 611.8118786689769L505.63675290672006 407.50750170747926Z " stroke-width="11.2" stroke="#b09dc7" fill="none" opacity="0.64" transform="rotate(40, 400, 400)"></path><path d="M500.7827747181175 401.16670096134783C504.0946215431858 394.47446146189077 513.6387291420073 394.47446146189077 516.9505759670756 401.16670096134783L619.5862603767417 608.5665987858986C622.552672197997 614.5607529251697 618.1909915754397 621.5858005614597 611.5032616713327 621.5858005614597H406.23008901386027C399.54235910975314 621.5858005614597 395.18067848719596 614.5607529251697 398.14709030845125 608.5665987858986L500.7827747181175 401.16670096134783Z " stroke-width="11.4" stroke="#ad9dca" fill="none" opacity="0.655" transform="rotate(38.33333333333333, 400, 400)"></path><path d="M495.9287812707258 394.82591547400557C499.29005864542194 388.0337918029147 508.97661561139 388.0337918029147 512.3378929860862 394.82591547400557L616.5054532824638 605.3213341616092C619.5161399070215 611.4049532880337 615.0893595736798 618.5348523815817 608.3018128053322 618.5348523815817H399.9648614514797C393.1773146831321 618.5348523815817 388.75053434979054 611.4049532880337 391.76122097434813 605.3213341616092L495.9287812707258 394.82591547400557Z " stroke-width="11.600000000000001" stroke="#ab9ccc" fill="none" opacity="0.67" transform="rotate(36.666666666666664, 400, 400)"></path><path d="M491.0747878233341 388.4851147278742C494.48549574765815 381.5931068851497 504.3145020807728 381.5931068851497 507.72521000509687 388.4851147278742L613.424646188186 602.0760542785308C616.4796076160459 608.2491383921086 611.9877275719198 615.4838889429147 605.1003639393318 615.4838889429147H393.69963388909906C386.81227025651117 615.4838889429147 382.32039021238506 608.2491383921086 385.375351640245 602.0760542785308L491.0747878233341 388.4851147278742Z " stroke-width="11.8" stroke="#a99ccf" fill="none" opacity="0.685" transform="rotate(35, 400, 400)"></path><path d="M486.2208096347315 382.1443292405319C489.6809481086834 375.1524372261737 499.65240380894465 375.1524372261737 503.1125422828966 382.1443292405319L610.3438543526971 598.8307896542415C613.4430905838594 605.0933387549726 608.8861108289489 612.4329407630368 601.8989303321205 612.4329407630368H387.43442158550755C380.4472410886792 612.4329407630368 375.8902613337687 605.0933387549726 378.98949756493096 598.8307896542415L486.2208096347315 382.1443292405319Z " stroke-width="12" stroke="#a69cd1" fill="none" opacity="0.7000000000000001" transform="rotate(33.33333333333333, 400, 400)"></path><path d="M481.3668314461289 375.80352849440055C484.87640046970876 368.7117523084087 494.99030553711657 368.7117523084087 498.4998745606964 375.80352849440055L607.2630625172083 595.5855097711633C610.4065735516729 601.9375238590476 605.7844940859779 609.3819773243697 598.6974967249093 609.3819773243697H381.16920928191604C374.0822119208473 609.3819773243697 369.4601324551524 601.9375238590476 372.60364348961696 595.5855097711633L481.3668314461289 375.80352849440055Z " stroke-width="12.200000000000001" stroke="#a49cd4" fill="none" opacity="0.7150000000000001" transform="rotate(31.666666666666657, 400, 400)"></path><path d="M476.51282273994815 369.46272774826923C480.07182231315585 362.2710673906437 490.3281767477103 362.2710673906437 493.88717632091806 369.46272774826923L604.1822401641414 592.3402298880849C607.3700260019084 598.7817089631226 602.6828468254289 606.3310138857028 595.4960326001199 606.3310138857028H374.9039664607464C367.71715223543725 606.3310138857028 363.02997305895786 598.7817089631226 366.2177588967248 592.3402298880849L476.51282273994815 369.46272774826923Z " stroke-width="12.4" stroke="#a19bd6" fill="none" opacity="0.73" transform="rotate(30, 400, 400)"></path><path d="M471.65881403376744 363.1219270021379C475.26724415660306 355.8303824728787 485.6660479583041 355.8303824728787 489.2744780811397 363.1219270021379L601.1014178110745 589.0949500050065C604.3334784521437 595.6258940671975 599.5811995648799 603.2800504470358 592.2945684753304 603.2800504470358H368.63872363957677C361.35209255002724 603.2800504470358 356.59981366276344 595.6258940671975 359.83187430383265 589.0949500050065L471.65881403376744 363.1219270021379Z " stroke-width="12.6" stroke="#9f9bd9" fill="none" opacity="0.745" transform="rotate(28.33333333333333, 400, 400)"></path><path d="M466.8048511039539 356.7811415147956C470.4627117764174 349.38971281390263 481.003964945265 349.38971281390263 484.6618256177285 356.7811415147956L598.0206412343748 585.8496853807172C601.2969766787463 592.4700944300615 596.479598080698 600.2291022671579 589.0931501269081 600.2291022671579H362.3735265947743C354.98707864098435 600.2291022671579 350.16970004293614 592.4700944300615 353.44603548730765 585.8496853807172L466.8048511039539 356.7811415147956Z " stroke-width="12.8" stroke="#9c9bdb" fill="none" opacity="0.76" transform="rotate(26.666666666666657, 400, 400)"></path><path d="M461.9508576565622 350.4403407686642C465.6581488786536 342.94902789613764 476.34185141464775 342.94902789613764 480.04914263673913 350.4403407686642L594.9398341400969 582.6044054976388C598.2604443877707 589.3142795341364 593.377966078938 597.1781388284909 585.8917012609077 597.1781388284909H356.1082990323937C348.62203421436334 597.1781388284909 343.73955590553066 589.3142795341364 347.06016615320453 582.6044054976388L461.9508576565622 350.4403407686642Z " stroke-width="13" stroke="#9a9bde" fill="none" opacity="0.775" transform="rotate(25, 400, 400)"></path><path d="M457.0968794679596 344.09955528132195C460.8536012396789 336.5083582371616 471.67975314281966 336.5083582371616 475.4364749145389 344.09955528132195L591.859042304608 579.3591408733495C595.2239273555842 586.1584798970005 590.276349335967 594.1271906486129 582.6902676536963 594.1271906486129H349.8430867288022C342.25700504653145 594.1271906486129 337.3094270269143 586.1584798970005 340.6743120778905 579.3591408733495L457.0968794679596 344.09955528132195Z " stroke-width="13.200000000000001" stroke="#979ae0" fill="none" opacity="0.79" transform="rotate(23.33333333333333, 400, 400)"></path><path d="M452.242901279357 337.75876216458505C456.0490536007041 330.0676809487911 467.01765487099146 330.0676809487911 470.8238071923387 337.75876216458505L588.7782504691193 576.1138686196657C592.1874103233977 583.0026726304699 587.1747325929961 591.0762348393405 579.488834046485 591.0762348393405H343.57787442521067C335.8919758786995 591.0762348393405 330.87929814829795 583.0026726304699 334.2884580025764 576.1138686196657L452.242901279357 337.75876216458505Z " stroke-width="13.4" stroke="#949ae2" fill="none" opacity="0.805" transform="rotate(21.666666666666657, 400, 400)"></path><path d="M447.3888925731763 331.4179690478483C451.2444754441513 323.62700366042066 462.35552608158525 323.62700366042066 466.2111089525603 331.4179690478483L585.6974281160522 572.8685963659818C589.150862773633 579.8468653639393 584.0730853324469 588.025279030068 576.2873699216955 588.025279030068H337.31263160404103C329.5269161932895 588.025279030068 324.44913875210347 579.8468653639393 327.9025734096843 572.8685963659818L447.3888925731763 331.4179690478483Z " stroke-width="13.600000000000001" stroke="#919ae5" fill="none" opacity="0.8200000000000001" transform="rotate(20, 400, 400)"></path><path d="M442.53489912578465 325.0771301547443C446.4399125463875 317.1862805956829 457.69341255096805 317.1862805956829 461.598425971571 325.0771301547443L582.6166210217743 569.6232783359309C586.1143304826576 576.6910123210416 580.9714533306872 584.9742774444284 573.085921055695 584.9742774444284H331.04740404166046C323.16187176666847 584.9742774444284 318.01899461469804 576.6910123210416 321.5167040755812 569.6232783359309L442.53489912578465 325.0771301547443Z " stroke-width="13.8" stroke="#8f9ae7" fill="none" opacity="0.8350000000000001" transform="rotate(18.33333333333333, 400, 400)"></path><path d="M437.68090567839295 318.7363370380075C441.6353496486238 310.7456033073124 453.0312990203509 310.7456033073124 456.9857429905817 318.7363370380075L579.5358139274965 566.3780060822471C583.0777981916821 573.5352050545112 577.8698213289271 581.9233216351558 569.8844721896947 581.9233216351558H324.7821764792799C316.7968273400475 581.9233216351558 311.5888504772927 573.5352050545112 315.1308347414781 566.3780060822471L437.68090567839295 318.7363370380075Z " stroke-width="14" stroke="#8c99e9" fill="none" opacity="0.8500000000000001" transform="rotate(16.666666666666657, 400, 400)"></path><path d="M432.82692748979036 312.3955439212707C436.830802009649 304.3049260189419 448.36920074852276 304.3049260189419 452.37307526838146 312.3955439212707L576.4550220920077 563.1327338285632C580.0412811594955 570.3793977879807 574.7682045859561 578.8723658258834 566.6830385824834 578.8723658258834H318.5169641756884C310.43179817221557 578.8723658258834 305.15872159867627 570.3793977879807 308.74498066616405 563.1327338285632L432.82692748979036 312.3955439212707Z " stroke-width="14.200000000000001" stroke="#8999ec" fill="none" opacity="0.865" transform="rotate(15, 400, 400)"></path><path d="M427.9729493011877 306.05476606332286C432.02625437067434 297.86426398936044 443.7071024766946 297.86426398936044 447.7604075461812 306.05476606332286L573.3742302565189 559.8874768336684C577.0047641273089 567.2236057802393 571.6665878429852 575.8214252754 563.481604975272 575.8214252754H312.2517518720968C304.0667690043836 575.8214252754 298.7285927200599 567.2236057802393 302.35912659085 559.8874768336684L427.9729493011877 306.05476606332286Z " stroke-width="14.4" stroke="#8699ee" fill="none" opacity="0.88" transform="rotate(13.333333333333329, 400, 400)"></path><path d="M423.11894059500696 299.71397294658607C427.22167621412143 291.4235867009899 439.04497368728835 291.4235867009899 443.1477093064028 299.71397294658607L570.293407903452 556.6422045799847C573.9682165775444 564.0677985137087 568.5649405824362 572.7704694661276 560.2801408504826 572.7704694661276H305.98650905092717C297.7017093189736 572.7704694661276 292.2984333238654 564.0677985137087 295.9732419979578 556.6422045799847L423.11894059500696 299.71397294658607Z " stroke-width="14.600000000000001" stroke="#8399f0" fill="none" opacity="0.895" transform="rotate(11.666666666666657, 400, 400)"></path><path d="M418.2649471476153 293.3731798298492C422.41711331635764 284.9829094126194 434.3828601566711 284.9829094126194 438.53502632541347 293.3731798298492L567.2126008091741 553.3969323263008C570.9316842865688 560.9119912471781 565.4633085806761 569.719513656855 557.0786919844821 569.719513656855H299.72128148854654C291.3366648923526 569.719513656855 285.86828918645995 560.9119912471781 289.5873726638547 553.3969323263008L418.2649471476153 293.3731798298492Z " stroke-width="14.8" stroke="#8098f2" fill="none" opacity="0.91" transform="rotate(10, 400, 400)"></path><path d="M413.4109842178018 287.03238671311243C417.61258093617204 278.5422321242489 429.7207771436321 278.5422321242489 433.9223738620023 287.03238671311243L564.1318242324744 550.151660072617C567.8951825131714 557.7561839806476 562.3617070964945 566.6685578475826 553.87727363606 566.6685578475826H293.45608444374415C284.97165098330976 566.6685578475826 279.4381755666327 557.7561839806476 283.20153384732976 550.151660072617L413.4109842178018 287.03238671311243Z " stroke-width="15" stroke="#7c98f4" fill="none" opacity="0.925" transform="rotate(8.333333333333329, 400, 400)"></path><path d="M408.55700602919916 280.6915935963756C412.80803329719726 272.1015548358784 425.0586788718039 272.1015548358784 429.3097061398021 280.6915935963756L561.0510323969856 546.9063878189331C564.8586654809849 554.6003767141171 559.2600903535233 563.6176020383102 550.6758400288486 563.6176020383102H287.19087214015263C278.6066218154778 563.6176020383102 273.00804668801635 554.6003767141171 276.8156797720157 546.9063878189331L408.55700602919916 280.6915935963756Z " stroke-width="15.200000000000001" stroke="#7998f7" fill="none" opacity="0.9400000000000001" transform="rotate(6.666666666666657, 400, 400)"></path><path d="M403.70299732301845 274.3508004796388C408.0034551406444 265.6608775475079 420.39655008239765 265.6608775475079 424.6970079000236 274.3508004796388L557.9702100439185 543.6611155652492C561.8221179312202 551.4445694475864 556.1584430929743 560.5666462290376 547.4743759040591 560.5666462290376H280.92562931898294C272.24156213006773 560.5666462290376 266.5778872918218 551.4445694475864 270.4297951791235 543.6611155652492L403.70299732301845 274.3508004796388Z " stroke-width="15.4" stroke="#7698f9" fill="none" opacity="0.9550000000000001" transform="rotate(5, 400, 400)"></path><path d="M398.8490038756267 268.01000736290194C403.1988922428806 259.22020025913736 415.73443655178045 259.22020025913736 420.0843249190344 268.01000736290194L554.8894029496407 540.4158433115656C558.7855856402448 548.288762181056 553.0568110912143 557.5156904197652 544.2729270380587 557.5156904197652H274.66040175660237C265.8765177034467 557.5156904197652 260.1477431544164 548.288762181056 264.0439258450204 540.4158433115656L398.8490038756267 268.01000736290194Z " stroke-width="15.600000000000001" stroke="#7297fb" fill="none" opacity="0.9700000000000001" transform="rotate(3.3333333333333286, 400, 400)"></path><path d="M393.99502568702417 261.66921424616515C398.39434460390595 252.7795229707669 411.07233827995236 252.7795229707669 415.47165719683414 261.66921424616515L551.808611114152 537.1705710578817C555.7490686080582 545.1329549145255 549.9551943482434 554.4647346104928 541.0714934308475 554.4647346104928H268.39518945301086C259.51148853561483 554.4647346104928 253.7176142758001 545.1329549145255 257.6580717697064 537.1705710578817L393.99502568702417 261.66921424616515Z " stroke-width="15.8" stroke="#6f97fd" fill="none" opacity="0.9850000000000001" transform="rotate(1.6666666666666572, 400, 400)"></path><path d="M389.14103223963247 255.32842112942834C393.58978170614216 246.33884568239637 406.41022474933516 246.33884568239637 410.8589742158448 255.32842112942834L548.727804019874 533.9252988041978C552.7125363170826 541.977147647995 546.8535623464834 551.4137788012202 537.8700445648469 551.4137788012202H262.1299618906303C253.14644410899382 551.4137788012202 247.2874701383946 541.977147647995 251.27220243560328 533.9252988041978L389.14103223963247 255.32842112942834Z " stroke-width="16" stroke="#6b97ff" fill="none" opacity="1" transform="rotate(0, 400, 400)"></path></g></svg>