<svg xmlns="http://www.w3.org/2000/svg" version="1.1" xmlns:xlink="http://www.w3.org/1999/xlink" xmlns:svgjs="http://svgjs.dev/svgjs" viewBox="0 0 800 800" opacity="1"><defs><linearGradient gradientTransform="rotate(270)" x1="50%" y1="0%" x2="50%" y2="100%" id="sssquiggly-grad"><stop stop-color="hsla(37, 91%, 55%, 1.00)" stop-opacity="1" offset="0%"></stop><stop stop-color="hsla(212, 72%, 59%, 1.00)" stop-opacity="1" offset="100%"></stop></linearGradient></defs><g stroke-width="5.5" stroke="url(#sssquiggly-grad)" fill="none" stroke-linecap="round" transform="matrix(1,0,0,1,-5,-1740.978256225586)"><path d="M10,10C31.726190476190478,15.416666666666666,68.75,56.416666666666664,114.28571428571429,36C159.82142857142858,15.583333333333336,180.95238095238096,-90.5,228.57142857142858,-88C276.1904761904762,-85.5,295.2380952380953,30.708333333333332,342.8571428571429,48C390.4761904761905,65.29166666666667,409.5238095238095,-9.375,457.14285714285717,-5C504.7619047619048,-0.625,523.8095238095239,77.125,571.4285714285714,69C619.047619047619,60.875,638.0952380952382,-53.375,685.7142857142858,-44C733.3333333333334,-34.625,776.1904761904761,81.08333333333334,800,114"></path><path d="M10,10C31.726190476190478,15.416666666666666,68.75,56.416666666666664,114.28571428571429,36C159.82142857142858,15.583333333333336,180.95238095238096,-90.5,228.57142857142858,-88C276.1904761904762,-85.5,295.2380952380953,30.708333333333332,342.8571428571429,48C390.4761904761905,65.29166666666667,409.5238095238095,-9.375,457.14285714285717,-5C504.7619047619048,-0.625,523.8095238095239,77.125,571.4285714285714,69C619.047619047619,60.875,638.0952380952382,-53.375,685.7142857142858,-44C733.3333333333334,-34.625,776.1904761904761,81.08333333333334,800,114" transform="matrix(1,0,0,1,0,4256)"></path><path d="M10,10C31.726190476190478,15.416666666666666,68.75,56.416666666666664,114.28571428571429,36C159.82142857142858,15.583333333333336,180.95238095238096,-90.5,228.57142857142858,-88C276.1904761904762,-85.5,295.2380952380953,30.708333333333332,342.8571428571429,48C390.4761904761905,65.29166666666667,409.5238095238095,-9.375,457.14285714285717,-5C504.7619047619048,-0.625,523.8095238095239,77.125,571.4285714285714,69C619.047619047619,60.875,638.0952380952382,-53.375,685.7142857142858,-44C733.3333333333334,-34.625,776.1904761904761,81.08333333333334,800,114" transform="matrix(1,0,0,1,0,4200)"></path><path d="M10,10C31.726190476190478,15.416666666666666,68.75,56.416666666666664,114.28571428571429,36C159.82142857142858,15.583333333333336,180.95238095238096,-90.5,228.57142857142858,-88C276.1904761904762,-85.5,295.2380952380953,30.708333333333332,342.8571428571429,48C390.4761904761905,65.29166666666667,409.5238095238095,-9.375,457.14285714285717,-5C504.7619047619048,-0.625,523.8095238095239,77.125,571.4285714285714,69C619.047619047619,60.875,638.0952380952382,-53.375,685.7142857142858,-44C733.3333333333334,-34.625,776.1904761904761,81.08333333333334,800,114" transform="matrix(1,0,0,1,0,4144)"></path><path d="M10,10C31.726190476190478,15.416666666666666,68.75,56.416666666666664,114.28571428571429,36C159.82142857142858,15.583333333333336,180.95238095238096,-90.5,228.57142857142858,-88C276.1904761904762,-85.5,295.2380952380953,30.708333333333332,342.8571428571429,48C390.4761904761905,65.29166666666667,409.5238095238095,-9.375,457.14285714285717,-5C504.7619047619048,-0.625,523.8095238095239,77.125,571.4285714285714,69C619.047619047619,60.875,638.0952380952382,-53.375,685.7142857142858,-44C733.3333333333334,-34.625,776.1904761904761,81.08333333333334,800,114" transform="matrix(1,0,0,1,0,4088)"></path><path d="M10,10C31.726190476190478,15.416666666666666,68.75,56.416666666666664,114.28571428571429,36C159.82142857142858,15.583333333333336,180.95238095238096,-90.5,228.57142857142858,-88C276.1904761904762,-85.5,295.2380952380953,30.708333333333332,342.8571428571429,48C390.4761904761905,65.29166666666667,409.5238095238095,-9.375,457.14285714285717,-5C504.7619047619048,-0.625,523.8095238095239,77.125,571.4285714285714,69C619.047619047619,60.875,638.0952380952382,-53.375,685.7142857142858,-44C733.3333333333334,-34.625,776.1904761904761,81.08333333333334,800,114" transform="matrix(1,0,0,1,0,4032)"></path><path d="M10,10C31.726190476190478,15.416666666666666,68.75,56.416666666666664,114.28571428571429,36C159.82142857142858,15.583333333333336,180.95238095238096,-90.5,228.57142857142858,-88C276.1904761904762,-85.5,295.2380952380953,30.708333333333332,342.8571428571429,48C390.4761904761905,65.29166666666667,409.5238095238095,-9.375,457.14285714285717,-5C504.7619047619048,-0.625,523.8095238095239,77.125,571.4285714285714,69C619.047619047619,60.875,638.0952380952382,-53.375,685.7142857142858,-44C733.3333333333334,-34.625,776.1904761904761,81.08333333333334,800,114" transform="matrix(1,0,0,1,0,3976)"></path><path d="M10,10C31.726190476190478,15.416666666666666,68.75,56.416666666666664,114.28571428571429,36C159.82142857142858,15.583333333333336,180.95238095238096,-90.5,228.57142857142858,-88C276.1904761904762,-85.5,295.2380952380953,30.708333333333332,342.8571428571429,48C390.4761904761905,65.29166666666667,409.5238095238095,-9.375,457.14285714285717,-5C504.7619047619048,-0.625,523.8095238095239,77.125,571.4285714285714,69C619.047619047619,60.875,638.0952380952382,-53.375,685.7142857142858,-44C733.3333333333334,-34.625,776.1904761904761,81.08333333333334,800,114" transform="matrix(1,0,0,1,0,3920)"></path><path d="M10,10C31.726190476190478,15.416666666666666,68.75,56.416666666666664,114.28571428571429,36C159.82142857142858,15.583333333333336,180.95238095238096,-90.5,228.57142857142858,-88C276.1904761904762,-85.5,295.2380952380953,30.708333333333332,342.8571428571429,48C390.4761904761905,65.29166666666667,409.5238095238095,-9.375,457.14285714285717,-5C504.7619047619048,-0.625,523.8095238095239,77.125,571.4285714285714,69C619.047619047619,60.875,638.0952380952382,-53.375,685.7142857142858,-44C733.3333333333334,-34.625,776.1904761904761,81.08333333333334,800,114" transform="matrix(1,0,0,1,0,3864)"></path><path d="M10,10C31.726190476190478,15.416666666666666,68.75,56.416666666666664,114.28571428571429,36C159.82142857142858,15.583333333333336,180.95238095238096,-90.5,228.57142857142858,-88C276.1904761904762,-85.5,295.2380952380953,30.708333333333332,342.8571428571429,48C390.4761904761905,65.29166666666667,409.5238095238095,-9.375,457.14285714285717,-5C504.7619047619048,-0.625,523.8095238095239,77.125,571.4285714285714,69C619.047619047619,60.875,638.0952380952382,-53.375,685.7142857142858,-44C733.3333333333334,-34.625,776.1904761904761,81.08333333333334,800,114" transform="matrix(1,0,0,1,0,3808)"></path><path d="M10,10C31.726190476190478,15.416666666666666,68.75,56.416666666666664,114.28571428571429,36C159.82142857142858,15.583333333333336,180.95238095238096,-90.5,228.57142857142858,-88C276.1904761904762,-85.5,295.2380952380953,30.708333333333332,342.8571428571429,48C390.4761904761905,65.29166666666667,409.5238095238095,-9.375,457.14285714285717,-5C504.7619047619048,-0.625,523.8095238095239,77.125,571.4285714285714,69C619.047619047619,60.875,638.0952380952382,-53.375,685.7142857142858,-44C733.3333333333334,-34.625,776.1904761904761,81.08333333333334,800,114" transform="matrix(1,0,0,1,0,3752)"></path><path d="M10,10C31.726190476190478,15.416666666666666,68.75,56.416666666666664,114.28571428571429,36C159.82142857142858,15.583333333333336,180.95238095238096,-90.5,228.57142857142858,-88C276.1904761904762,-85.5,295.2380952380953,30.708333333333332,342.8571428571429,48C390.4761904761905,65.29166666666667,409.5238095238095,-9.375,457.14285714285717,-5C504.7619047619048,-0.625,523.8095238095239,77.125,571.4285714285714,69C619.047619047619,60.875,638.0952380952382,-53.375,685.7142857142858,-44C733.3333333333334,-34.625,776.1904761904761,81.08333333333334,800,114" transform="matrix(1,0,0,1,0,3696)"></path><path d="M10,10C31.726190476190478,15.416666666666666,68.75,56.416666666666664,114.28571428571429,36C159.82142857142858,15.583333333333336,180.95238095238096,-90.5,228.57142857142858,-88C276.1904761904762,-85.5,295.2380952380953,30.708333333333332,342.8571428571429,48C390.4761904761905,65.29166666666667,409.5238095238095,-9.375,457.14285714285717,-5C504.7619047619048,-0.625,523.8095238095239,77.125,571.4285714285714,69C619.047619047619,60.875,638.0952380952382,-53.375,685.7142857142858,-44C733.3333333333334,-34.625,776.1904761904761,81.08333333333334,800,114" transform="matrix(1,0,0,1,0,3640)"></path><path d="M10,10C31.726190476190478,15.416666666666666,68.75,56.416666666666664,114.28571428571429,36C159.82142857142858,15.583333333333336,180.95238095238096,-90.5,228.57142857142858,-88C276.1904761904762,-85.5,295.2380952380953,30.708333333333332,342.8571428571429,48C390.4761904761905,65.29166666666667,409.5238095238095,-9.375,457.14285714285717,-5C504.7619047619048,-0.625,523.8095238095239,77.125,571.4285714285714,69C619.047619047619,60.875,638.0952380952382,-53.375,685.7142857142858,-44C733.3333333333334,-34.625,776.1904761904761,81.08333333333334,800,114" transform="matrix(1,0,0,1,0,3584)"></path><path d="M10,10C31.726190476190478,15.416666666666666,68.75,56.416666666666664,114.28571428571429,36C159.82142857142858,15.583333333333336,180.95238095238096,-90.5,228.57142857142858,-88C276.1904761904762,-85.5,295.2380952380953,30.708333333333332,342.8571428571429,48C390.4761904761905,65.29166666666667,409.5238095238095,-9.375,457.14285714285717,-5C504.7619047619048,-0.625,523.8095238095239,77.125,571.4285714285714,69C619.047619047619,60.875,638.0952380952382,-53.375,685.7142857142858,-44C733.3333333333334,-34.625,776.1904761904761,81.08333333333334,800,114" transform="matrix(1,0,0,1,0,3528)"></path><path d="M10,10C31.726190476190478,15.416666666666666,68.75,56.416666666666664,114.28571428571429,36C159.82142857142858,15.583333333333336,180.95238095238096,-90.5,228.57142857142858,-88C276.1904761904762,-85.5,295.2380952380953,30.708333333333332,342.8571428571429,48C390.4761904761905,65.29166666666667,409.5238095238095,-9.375,457.14285714285717,-5C504.7619047619048,-0.625,523.8095238095239,77.125,571.4285714285714,69C619.047619047619,60.875,638.0952380952382,-53.375,685.7142857142858,-44C733.3333333333334,-34.625,776.1904761904761,81.08333333333334,800,114" transform="matrix(1,0,0,1,0,3472)"></path><path d="M10,10C31.726190476190478,15.416666666666666,68.75,56.416666666666664,114.28571428571429,36C159.82142857142858,15.583333333333336,180.95238095238096,-90.5,228.57142857142858,-88C276.1904761904762,-85.5,295.2380952380953,30.708333333333332,342.8571428571429,48C390.4761904761905,65.29166666666667,409.5238095238095,-9.375,457.14285714285717,-5C504.7619047619048,-0.625,523.8095238095239,77.125,571.4285714285714,69C619.047619047619,60.875,638.0952380952382,-53.375,685.7142857142858,-44C733.3333333333334,-34.625,776.1904761904761,81.08333333333334,800,114" transform="matrix(1,0,0,1,0,3416)"></path><path d="M10,10C31.726190476190478,15.416666666666666,68.75,56.416666666666664,114.28571428571429,36C159.82142857142858,15.583333333333336,180.95238095238096,-90.5,228.57142857142858,-88C276.1904761904762,-85.5,295.2380952380953,30.708333333333332,342.8571428571429,48C390.4761904761905,65.29166666666667,409.5238095238095,-9.375,457.14285714285717,-5C504.7619047619048,-0.625,523.8095238095239,77.125,571.4285714285714,69C619.047619047619,60.875,638.0952380952382,-53.375,685.7142857142858,-44C733.3333333333334,-34.625,776.1904761904761,81.08333333333334,800,114" transform="matrix(1,0,0,1,0,3360)"></path><path d="M10,10C31.726190476190478,15.416666666666666,68.75,56.416666666666664,114.28571428571429,36C159.82142857142858,15.583333333333336,180.95238095238096,-90.5,228.57142857142858,-88C276.1904761904762,-85.5,295.2380952380953,30.708333333333332,342.8571428571429,48C390.4761904761905,65.29166666666667,409.5238095238095,-9.375,457.14285714285717,-5C504.7619047619048,-0.625,523.8095238095239,77.125,571.4285714285714,69C619.047619047619,60.875,638.0952380952382,-53.375,685.7142857142858,-44C733.3333333333334,-34.625,776.1904761904761,81.08333333333334,800,114" transform="matrix(1,0,0,1,0,3304)"></path><path d="M10,10C31.726190476190478,15.416666666666666,68.75,56.416666666666664,114.28571428571429,36C159.82142857142858,15.583333333333336,180.95238095238096,-90.5,228.57142857142858,-88C276.1904761904762,-85.5,295.2380952380953,30.708333333333332,342.8571428571429,48C390.4761904761905,65.29166666666667,409.5238095238095,-9.375,457.14285714285717,-5C504.7619047619048,-0.625,523.8095238095239,77.125,571.4285714285714,69C619.047619047619,60.875,638.0952380952382,-53.375,685.7142857142858,-44C733.3333333333334,-34.625,776.1904761904761,81.08333333333334,800,114" transform="matrix(1,0,0,1,0,3248)"></path><path d="M10,10C31.726190476190478,15.416666666666666,68.75,56.416666666666664,114.28571428571429,36C159.82142857142858,15.583333333333336,180.95238095238096,-90.5,228.57142857142858,-88C276.1904761904762,-85.5,295.2380952380953,30.708333333333332,342.8571428571429,48C390.4761904761905,65.29166666666667,409.5238095238095,-9.375,457.14285714285717,-5C504.7619047619048,-0.625,523.8095238095239,77.125,571.4285714285714,69C619.047619047619,60.875,638.0952380952382,-53.375,685.7142857142858,-44C733.3333333333334,-34.625,776.1904761904761,81.08333333333334,800,114" transform="matrix(1,0,0,1,0,3192)"></path><path d="M10,10C31.726190476190478,15.416666666666666,68.75,56.416666666666664,114.28571428571429,36C159.82142857142858,15.583333333333336,180.95238095238096,-90.5,228.57142857142858,-88C276.1904761904762,-85.5,295.2380952380953,30.708333333333332,342.8571428571429,48C390.4761904761905,65.29166666666667,409.5238095238095,-9.375,457.14285714285717,-5C504.7619047619048,-0.625,523.8095238095239,77.125,571.4285714285714,69C619.047619047619,60.875,638.0952380952382,-53.375,685.7142857142858,-44C733.3333333333334,-34.625,776.1904761904761,81.08333333333334,800,114" transform="matrix(1,0,0,1,0,3136)"></path><path d="M10,10C31.726190476190478,15.416666666666666,68.75,56.416666666666664,114.28571428571429,36C159.82142857142858,15.583333333333336,180.95238095238096,-90.5,228.57142857142858,-88C276.1904761904762,-85.5,295.2380952380953,30.708333333333332,342.8571428571429,48C390.4761904761905,65.29166666666667,409.5238095238095,-9.375,457.14285714285717,-5C504.7619047619048,-0.625,523.8095238095239,77.125,571.4285714285714,69C619.047619047619,60.875,638.0952380952382,-53.375,685.7142857142858,-44C733.3333333333334,-34.625,776.1904761904761,81.08333333333334,800,114" transform="matrix(1,0,0,1,0,3080)"></path><path d="M10,10C31.726190476190478,15.416666666666666,68.75,56.416666666666664,114.28571428571429,36C159.82142857142858,15.583333333333336,180.95238095238096,-90.5,228.57142857142858,-88C276.1904761904762,-85.5,295.2380952380953,30.708333333333332,342.8571428571429,48C390.4761904761905,65.29166666666667,409.5238095238095,-9.375,457.14285714285717,-5C504.7619047619048,-0.625,523.8095238095239,77.125,571.4285714285714,69C619.047619047619,60.875,638.0952380952382,-53.375,685.7142857142858,-44C733.3333333333334,-34.625,776.1904761904761,81.08333333333334,800,114" transform="matrix(1,0,0,1,0,3024)"></path><path d="M10,10C31.726190476190478,15.416666666666666,68.75,56.416666666666664,114.28571428571429,36C159.82142857142858,15.583333333333336,180.95238095238096,-90.5,228.57142857142858,-88C276.1904761904762,-85.5,295.2380952380953,30.708333333333332,342.8571428571429,48C390.4761904761905,65.29166666666667,409.5238095238095,-9.375,457.14285714285717,-5C504.7619047619048,-0.625,523.8095238095239,77.125,571.4285714285714,69C619.047619047619,60.875,638.0952380952382,-53.375,685.7142857142858,-44C733.3333333333334,-34.625,776.1904761904761,81.08333333333334,800,114" transform="matrix(1,0,0,1,0,2968)"></path><path d="M10,10C31.726190476190478,15.416666666666666,68.75,56.416666666666664,114.28571428571429,36C159.82142857142858,15.583333333333336,180.95238095238096,-90.5,228.57142857142858,-88C276.1904761904762,-85.5,295.2380952380953,30.708333333333332,342.8571428571429,48C390.4761904761905,65.29166666666667,409.5238095238095,-9.375,457.14285714285717,-5C504.7619047619048,-0.625,523.8095238095239,77.125,571.4285714285714,69C619.047619047619,60.875,638.0952380952382,-53.375,685.7142857142858,-44C733.3333333333334,-34.625,776.1904761904761,81.08333333333334,800,114" transform="matrix(1,0,0,1,0,2912)"></path><path d="M10,10C31.726190476190478,15.416666666666666,68.75,56.416666666666664,114.28571428571429,36C159.82142857142858,15.583333333333336,180.95238095238096,-90.5,228.57142857142858,-88C276.1904761904762,-85.5,295.2380952380953,30.708333333333332,342.8571428571429,48C390.4761904761905,65.29166666666667,409.5238095238095,-9.375,457.14285714285717,-5C504.7619047619048,-0.625,523.8095238095239,77.125,571.4285714285714,69C619.047619047619,60.875,638.0952380952382,-53.375,685.7142857142858,-44C733.3333333333334,-34.625,776.1904761904761,81.08333333333334,800,114" transform="matrix(1,0,0,1,0,2856)"></path><path d="M10,10C31.726190476190478,15.416666666666666,68.75,56.416666666666664,114.28571428571429,36C159.82142857142858,15.583333333333336,180.95238095238096,-90.5,228.57142857142858,-88C276.1904761904762,-85.5,295.2380952380953,30.708333333333332,342.8571428571429,48C390.4761904761905,65.29166666666667,409.5238095238095,-9.375,457.14285714285717,-5C504.7619047619048,-0.625,523.8095238095239,77.125,571.4285714285714,69C619.047619047619,60.875,638.0952380952382,-53.375,685.7142857142858,-44C733.3333333333334,-34.625,776.1904761904761,81.08333333333334,800,114" transform="matrix(1,0,0,1,0,2800)"></path><path d="M10,10C31.726190476190478,15.416666666666666,68.75,56.416666666666664,114.28571428571429,36C159.82142857142858,15.583333333333336,180.95238095238096,-90.5,228.57142857142858,-88C276.1904761904762,-85.5,295.2380952380953,30.708333333333332,342.8571428571429,48C390.4761904761905,65.29166666666667,409.5238095238095,-9.375,457.14285714285717,-5C504.7619047619048,-0.625,523.8095238095239,77.125,571.4285714285714,69C619.047619047619,60.875,638.0952380952382,-53.375,685.7142857142858,-44C733.3333333333334,-34.625,776.1904761904761,81.08333333333334,800,114" transform="matrix(1,0,0,1,0,2744)"></path><path d="M10,10C31.726190476190478,15.416666666666666,68.75,56.416666666666664,114.28571428571429,36C159.82142857142858,15.583333333333336,180.95238095238096,-90.5,228.57142857142858,-88C276.1904761904762,-85.5,295.2380952380953,30.708333333333332,342.8571428571429,48C390.4761904761905,65.29166666666667,409.5238095238095,-9.375,457.14285714285717,-5C504.7619047619048,-0.625,523.8095238095239,77.125,571.4285714285714,69C619.047619047619,60.875,638.0952380952382,-53.375,685.7142857142858,-44C733.3333333333334,-34.625,776.1904761904761,81.08333333333334,800,114" transform="matrix(1,0,0,1,0,2688)"></path><path d="M10,10C31.726190476190478,15.416666666666666,68.75,56.416666666666664,114.28571428571429,36C159.82142857142858,15.583333333333336,180.95238095238096,-90.5,228.57142857142858,-88C276.1904761904762,-85.5,295.2380952380953,30.708333333333332,342.8571428571429,48C390.4761904761905,65.29166666666667,409.5238095238095,-9.375,457.14285714285717,-5C504.7619047619048,-0.625,523.8095238095239,77.125,571.4285714285714,69C619.047619047619,60.875,638.0952380952382,-53.375,685.7142857142858,-44C733.3333333333334,-34.625,776.1904761904761,81.08333333333334,800,114" transform="matrix(1,0,0,1,0,2632)"></path><path d="M10,10C31.726190476190478,15.416666666666666,68.75,56.416666666666664,114.28571428571429,36C159.82142857142858,15.583333333333336,180.95238095238096,-90.5,228.57142857142858,-88C276.1904761904762,-85.5,295.2380952380953,30.708333333333332,342.8571428571429,48C390.4761904761905,65.29166666666667,409.5238095238095,-9.375,457.14285714285717,-5C504.7619047619048,-0.625,523.8095238095239,77.125,571.4285714285714,69C619.047619047619,60.875,638.0952380952382,-53.375,685.7142857142858,-44C733.3333333333334,-34.625,776.1904761904761,81.08333333333334,800,114" transform="matrix(1,0,0,1,0,2576)"></path><path d="M10,10C31.726190476190478,15.416666666666666,68.75,56.416666666666664,114.28571428571429,36C159.82142857142858,15.583333333333336,180.95238095238096,-90.5,228.57142857142858,-88C276.1904761904762,-85.5,295.2380952380953,30.708333333333332,342.8571428571429,48C390.4761904761905,65.29166666666667,409.5238095238095,-9.375,457.14285714285717,-5C504.7619047619048,-0.625,523.8095238095239,77.125,571.4285714285714,69C619.047619047619,60.875,638.0952380952382,-53.375,685.7142857142858,-44C733.3333333333334,-34.625,776.1904761904761,81.08333333333334,800,114" transform="matrix(1,0,0,1,0,2520)"></path><path d="M10,10C31.726190476190478,15.416666666666666,68.75,56.416666666666664,114.28571428571429,36C159.82142857142858,15.583333333333336,180.95238095238096,-90.5,228.57142857142858,-88C276.1904761904762,-85.5,295.2380952380953,30.708333333333332,342.8571428571429,48C390.4761904761905,65.29166666666667,409.5238095238095,-9.375,457.14285714285717,-5C504.7619047619048,-0.625,523.8095238095239,77.125,571.4285714285714,69C619.047619047619,60.875,638.0952380952382,-53.375,685.7142857142858,-44C733.3333333333334,-34.625,776.1904761904761,81.08333333333334,800,114" transform="matrix(1,0,0,1,0,2464)"></path><path d="M10,10C31.726190476190478,15.416666666666666,68.75,56.416666666666664,114.28571428571429,36C159.82142857142858,15.583333333333336,180.95238095238096,-90.5,228.57142857142858,-88C276.1904761904762,-85.5,295.2380952380953,30.708333333333332,342.8571428571429,48C390.4761904761905,65.29166666666667,409.5238095238095,-9.375,457.14285714285717,-5C504.7619047619048,-0.625,523.8095238095239,77.125,571.4285714285714,69C619.047619047619,60.875,638.0952380952382,-53.375,685.7142857142858,-44C733.3333333333334,-34.625,776.1904761904761,81.08333333333334,800,114" transform="matrix(1,0,0,1,0,2408)"></path><path d="M10,10C31.726190476190478,15.416666666666666,68.75,56.416666666666664,114.28571428571429,36C159.82142857142858,15.583333333333336,180.95238095238096,-90.5,228.57142857142858,-88C276.1904761904762,-85.5,295.2380952380953,30.708333333333332,342.8571428571429,48C390.4761904761905,65.29166666666667,409.5238095238095,-9.375,457.14285714285717,-5C504.7619047619048,-0.625,523.8095238095239,77.125,571.4285714285714,69C619.047619047619,60.875,638.0952380952382,-53.375,685.7142857142858,-44C733.3333333333334,-34.625,776.1904761904761,81.08333333333334,800,114" transform="matrix(1,0,0,1,0,2352)"></path><path d="M10,10C31.726190476190478,15.416666666666666,68.75,56.416666666666664,114.28571428571429,36C159.82142857142858,15.583333333333336,180.95238095238096,-90.5,228.57142857142858,-88C276.1904761904762,-85.5,295.2380952380953,30.708333333333332,342.8571428571429,48C390.4761904761905,65.29166666666667,409.5238095238095,-9.375,457.14285714285717,-5C504.7619047619048,-0.625,523.8095238095239,77.125,571.4285714285714,69C619.047619047619,60.875,638.0952380952382,-53.375,685.7142857142858,-44C733.3333333333334,-34.625,776.1904761904761,81.08333333333334,800,114" transform="matrix(1,0,0,1,0,2296)"></path><path d="M10,10C31.726190476190478,15.416666666666666,68.75,56.416666666666664,114.28571428571429,36C159.82142857142858,15.583333333333336,180.95238095238096,-90.5,228.57142857142858,-88C276.1904761904762,-85.5,295.2380952380953,30.708333333333332,342.8571428571429,48C390.4761904761905,65.29166666666667,409.5238095238095,-9.375,457.14285714285717,-5C504.7619047619048,-0.625,523.8095238095239,77.125,571.4285714285714,69C619.047619047619,60.875,638.0952380952382,-53.375,685.7142857142858,-44C733.3333333333334,-34.625,776.1904761904761,81.08333333333334,800,114" transform="matrix(1,0,0,1,0,2240)"></path><path d="M10,10C31.726190476190478,15.416666666666666,68.75,56.416666666666664,114.28571428571429,36C159.82142857142858,15.583333333333336,180.95238095238096,-90.5,228.57142857142858,-88C276.1904761904762,-85.5,295.2380952380953,30.708333333333332,342.8571428571429,48C390.4761904761905,65.29166666666667,409.5238095238095,-9.375,457.14285714285717,-5C504.7619047619048,-0.625,523.8095238095239,77.125,571.4285714285714,69C619.047619047619,60.875,638.0952380952382,-53.375,685.7142857142858,-44C733.3333333333334,-34.625,776.1904761904761,81.08333333333334,800,114" transform="matrix(1,0,0,1,0,2184)"></path><path d="M10,10C31.726190476190478,15.416666666666666,68.75,56.416666666666664,114.28571428571429,36C159.82142857142858,15.583333333333336,180.95238095238096,-90.5,228.57142857142858,-88C276.1904761904762,-85.5,295.2380952380953,30.708333333333332,342.8571428571429,48C390.4761904761905,65.29166666666667,409.5238095238095,-9.375,457.14285714285717,-5C504.7619047619048,-0.625,523.8095238095239,77.125,571.4285714285714,69C619.047619047619,60.875,638.0952380952382,-53.375,685.7142857142858,-44C733.3333333333334,-34.625,776.1904761904761,81.08333333333334,800,114" transform="matrix(1,0,0,1,0,2128)"></path><path d="M10,10C31.726190476190478,15.416666666666666,68.75,56.416666666666664,114.28571428571429,36C159.82142857142858,15.583333333333336,180.95238095238096,-90.5,228.57142857142858,-88C276.1904761904762,-85.5,295.2380952380953,30.708333333333332,342.8571428571429,48C390.4761904761905,65.29166666666667,409.5238095238095,-9.375,457.14285714285717,-5C504.7619047619048,-0.625,523.8095238095239,77.125,571.4285714285714,69C619.047619047619,60.875,638.0952380952382,-53.375,685.7142857142858,-44C733.3333333333334,-34.625,776.1904761904761,81.08333333333334,800,114" transform="matrix(1,0,0,1,0,2072)"></path><path d="M10,10C31.726190476190478,15.416666666666666,68.75,56.416666666666664,114.28571428571429,36C159.82142857142858,15.583333333333336,180.95238095238096,-90.5,228.57142857142858,-88C276.1904761904762,-85.5,295.2380952380953,30.708333333333332,342.8571428571429,48C390.4761904761905,65.29166666666667,409.5238095238095,-9.375,457.14285714285717,-5C504.7619047619048,-0.625,523.8095238095239,77.125,571.4285714285714,69C619.047619047619,60.875,638.0952380952382,-53.375,685.7142857142858,-44C733.3333333333334,-34.625,776.1904761904761,81.08333333333334,800,114" transform="matrix(1,0,0,1,0,2016)"></path><path d="M10,10C31.726190476190478,15.416666666666666,68.75,56.416666666666664,114.28571428571429,36C159.82142857142858,15.583333333333336,180.95238095238096,-90.5,228.57142857142858,-88C276.1904761904762,-85.5,295.2380952380953,30.708333333333332,342.8571428571429,48C390.4761904761905,65.29166666666667,409.5238095238095,-9.375,457.14285714285717,-5C504.7619047619048,-0.625,523.8095238095239,77.125,571.4285714285714,69C619.047619047619,60.875,638.0952380952382,-53.375,685.7142857142858,-44C733.3333333333334,-34.625,776.1904761904761,81.08333333333334,800,114" transform="matrix(1,0,0,1,0,1960)"></path><path d="M10,10C31.726190476190478,15.416666666666666,68.75,56.416666666666664,114.28571428571429,36C159.82142857142858,15.583333333333336,180.95238095238096,-90.5,228.57142857142858,-88C276.1904761904762,-85.5,295.2380952380953,30.708333333333332,342.8571428571429,48C390.4761904761905,65.29166666666667,409.5238095238095,-9.375,457.14285714285717,-5C504.7619047619048,-0.625,523.8095238095239,77.125,571.4285714285714,69C619.047619047619,60.875,638.0952380952382,-53.375,685.7142857142858,-44C733.3333333333334,-34.625,776.1904761904761,81.08333333333334,800,114" transform="matrix(1,0,0,1,0,1904)"></path><path d="M10,10C31.726190476190478,15.416666666666666,68.75,56.416666666666664,114.28571428571429,36C159.82142857142858,15.583333333333336,180.95238095238096,-90.5,228.57142857142858,-88C276.1904761904762,-85.5,295.2380952380953,30.708333333333332,342.8571428571429,48C390.4761904761905,65.29166666666667,409.5238095238095,-9.375,457.14285714285717,-5C504.7619047619048,-0.625,523.8095238095239,77.125,571.4285714285714,69C619.047619047619,60.875,638.0952380952382,-53.375,685.7142857142858,-44C733.3333333333334,-34.625,776.1904761904761,81.08333333333334,800,114" transform="matrix(1,0,0,1,0,1848)"></path><path d="M10,10C31.726190476190478,15.416666666666666,68.75,56.416666666666664,114.28571428571429,36C159.82142857142858,15.583333333333336,180.95238095238096,-90.5,228.57142857142858,-88C276.1904761904762,-85.5,295.2380952380953,30.708333333333332,342.8571428571429,48C390.4761904761905,65.29166666666667,409.5238095238095,-9.375,457.14285714285717,-5C504.7619047619048,-0.625,523.8095238095239,77.125,571.4285714285714,69C619.047619047619,60.875,638.0952380952382,-53.375,685.7142857142858,-44C733.3333333333334,-34.625,776.1904761904761,81.08333333333334,800,114" transform="matrix(1,0,0,1,0,1792)"></path><path d="M10,10C31.726190476190478,15.416666666666666,68.75,56.416666666666664,114.28571428571429,36C159.82142857142858,15.583333333333336,180.95238095238096,-90.5,228.57142857142858,-88C276.1904761904762,-85.5,295.2380952380953,30.708333333333332,342.8571428571429,48C390.4761904761905,65.29166666666667,409.5238095238095,-9.375,457.14285714285717,-5C504.7619047619048,-0.625,523.8095238095239,77.125,571.4285714285714,69C619.047619047619,60.875,638.0952380952382,-53.375,685.7142857142858,-44C733.3333333333334,-34.625,776.1904761904761,81.08333333333334,800,114" transform="matrix(1,0,0,1,0,1736)"></path><path d="M10,10C31.726190476190478,15.416666666666666,68.75,56.416666666666664,114.28571428571429,36C159.82142857142858,15.583333333333336,180.95238095238096,-90.5,228.57142857142858,-88C276.1904761904762,-85.5,295.2380952380953,30.708333333333332,342.8571428571429,48C390.4761904761905,65.29166666666667,409.5238095238095,-9.375,457.14285714285717,-5C504.7619047619048,-0.625,523.8095238095239,77.125,571.4285714285714,69C619.047619047619,60.875,638.0952380952382,-53.375,685.7142857142858,-44C733.3333333333334,-34.625,776.1904761904761,81.08333333333334,800,114" transform="matrix(1,0,0,1,0,1680)"></path><path d="M10,10C31.726190476190478,15.416666666666666,68.75,56.416666666666664,114.28571428571429,36C159.82142857142858,15.583333333333336,180.95238095238096,-90.5,228.57142857142858,-88C276.1904761904762,-85.5,295.2380952380953,30.708333333333332,342.8571428571429,48C390.4761904761905,65.29166666666667,409.5238095238095,-9.375,457.14285714285717,-5C504.7619047619048,-0.625,523.8095238095239,77.125,571.4285714285714,69C619.047619047619,60.875,638.0952380952382,-53.375,685.7142857142858,-44C733.3333333333334,-34.625,776.1904761904761,81.08333333333334,800,114" transform="matrix(1,0,0,1,0,1624)"></path><path d="M10,10C31.726190476190478,15.416666666666666,68.75,56.416666666666664,114.28571428571429,36C159.82142857142858,15.583333333333336,180.95238095238096,-90.5,228.57142857142858,-88C276.1904761904762,-85.5,295.2380952380953,30.708333333333332,342.8571428571429,48C390.4761904761905,65.29166666666667,409.5238095238095,-9.375,457.14285714285717,-5C504.7619047619048,-0.625,523.8095238095239,77.125,571.4285714285714,69C619.047619047619,60.875,638.0952380952382,-53.375,685.7142857142858,-44C733.3333333333334,-34.625,776.1904761904761,81.08333333333334,800,114" transform="matrix(1,0,0,1,0,1568)"></path><path d="M10,10C31.726190476190478,15.416666666666666,68.75,56.416666666666664,114.28571428571429,36C159.82142857142858,15.583333333333336,180.95238095238096,-90.5,228.57142857142858,-88C276.1904761904762,-85.5,295.2380952380953,30.708333333333332,342.8571428571429,48C390.4761904761905,65.29166666666667,409.5238095238095,-9.375,457.14285714285717,-5C504.7619047619048,-0.625,523.8095238095239,77.125,571.4285714285714,69C619.047619047619,60.875,638.0952380952382,-53.375,685.7142857142858,-44C733.3333333333334,-34.625,776.1904761904761,81.08333333333334,800,114" transform="matrix(1,0,0,1,0,1512)"></path><path d="M10,10C31.726190476190478,15.416666666666666,68.75,56.416666666666664,114.28571428571429,36C159.82142857142858,15.583333333333336,180.95238095238096,-90.5,228.57142857142858,-88C276.1904761904762,-85.5,295.2380952380953,30.708333333333332,342.8571428571429,48C390.4761904761905,65.29166666666667,409.5238095238095,-9.375,457.14285714285717,-5C504.7619047619048,-0.625,523.8095238095239,77.125,571.4285714285714,69C619.047619047619,60.875,638.0952380952382,-53.375,685.7142857142858,-44C733.3333333333334,-34.625,776.1904761904761,81.08333333333334,800,114" transform="matrix(1,0,0,1,0,1456)"></path><path d="M10,10C31.726190476190478,15.416666666666666,68.75,56.416666666666664,114.28571428571429,36C159.82142857142858,15.583333333333336,180.95238095238096,-90.5,228.57142857142858,-88C276.1904761904762,-85.5,295.2380952380953,30.708333333333332,342.8571428571429,48C390.4761904761905,65.29166666666667,409.5238095238095,-9.375,457.14285714285717,-5C504.7619047619048,-0.625,523.8095238095239,77.125,571.4285714285714,69C619.047619047619,60.875,638.0952380952382,-53.375,685.7142857142858,-44C733.3333333333334,-34.625,776.1904761904761,81.08333333333334,800,114" transform="matrix(1,0,0,1,0,1400)"></path><path d="M10,10C31.726190476190478,15.416666666666666,68.75,56.416666666666664,114.28571428571429,36C159.82142857142858,15.583333333333336,180.95238095238096,-90.5,228.57142857142858,-88C276.1904761904762,-85.5,295.2380952380953,30.708333333333332,342.8571428571429,48C390.4761904761905,65.29166666666667,409.5238095238095,-9.375,457.14285714285717,-5C504.7619047619048,-0.625,523.8095238095239,77.125,571.4285714285714,69C619.047619047619,60.875,638.0952380952382,-53.375,685.7142857142858,-44C733.3333333333334,-34.625,776.1904761904761,81.08333333333334,800,114" transform="matrix(1,0,0,1,0,1344)"></path><path d="M10,10C31.726190476190478,15.416666666666666,68.75,56.416666666666664,114.28571428571429,36C159.82142857142858,15.583333333333336,180.95238095238096,-90.5,228.57142857142858,-88C276.1904761904762,-85.5,295.2380952380953,30.708333333333332,342.8571428571429,48C390.4761904761905,65.29166666666667,409.5238095238095,-9.375,457.14285714285717,-5C504.7619047619048,-0.625,523.8095238095239,77.125,571.4285714285714,69C619.047619047619,60.875,638.0952380952382,-53.375,685.7142857142858,-44C733.3333333333334,-34.625,776.1904761904761,81.08333333333334,800,114" transform="matrix(1,0,0,1,0,1288)"></path><path d="M10,10C31.726190476190478,15.416666666666666,68.75,56.416666666666664,114.28571428571429,36C159.82142857142858,15.583333333333336,180.95238095238096,-90.5,228.57142857142858,-88C276.1904761904762,-85.5,295.2380952380953,30.708333333333332,342.8571428571429,48C390.4761904761905,65.29166666666667,409.5238095238095,-9.375,457.14285714285717,-5C504.7619047619048,-0.625,523.8095238095239,77.125,571.4285714285714,69C619.047619047619,60.875,638.0952380952382,-53.375,685.7142857142858,-44C733.3333333333334,-34.625,776.1904761904761,81.08333333333334,800,114" transform="matrix(1,0,0,1,0,1232)"></path><path d="M10,10C31.726190476190478,15.416666666666666,68.75,56.416666666666664,114.28571428571429,36C159.82142857142858,15.583333333333336,180.95238095238096,-90.5,228.57142857142858,-88C276.1904761904762,-85.5,295.2380952380953,30.708333333333332,342.8571428571429,48C390.4761904761905,65.29166666666667,409.5238095238095,-9.375,457.14285714285717,-5C504.7619047619048,-0.625,523.8095238095239,77.125,571.4285714285714,69C619.047619047619,60.875,638.0952380952382,-53.375,685.7142857142858,-44C733.3333333333334,-34.625,776.1904761904761,81.08333333333334,800,114" transform="matrix(1,0,0,1,0,1176)"></path><path d="M10,10C31.726190476190478,15.416666666666666,68.75,56.416666666666664,114.28571428571429,36C159.82142857142858,15.583333333333336,180.95238095238096,-90.5,228.57142857142858,-88C276.1904761904762,-85.5,295.2380952380953,30.708333333333332,342.8571428571429,48C390.4761904761905,65.29166666666667,409.5238095238095,-9.375,457.14285714285717,-5C504.7619047619048,-0.625,523.8095238095239,77.125,571.4285714285714,69C619.047619047619,60.875,638.0952380952382,-53.375,685.7142857142858,-44C733.3333333333334,-34.625,776.1904761904761,81.08333333333334,800,114" transform="matrix(1,0,0,1,0,1120)"></path><path d="M10,10C31.726190476190478,15.416666666666666,68.75,56.416666666666664,114.28571428571429,36C159.82142857142858,15.583333333333336,180.95238095238096,-90.5,228.57142857142858,-88C276.1904761904762,-85.5,295.2380952380953,30.708333333333332,342.8571428571429,48C390.4761904761905,65.29166666666667,409.5238095238095,-9.375,457.14285714285717,-5C504.7619047619048,-0.625,523.8095238095239,77.125,571.4285714285714,69C619.047619047619,60.875,638.0952380952382,-53.375,685.7142857142858,-44C733.3333333333334,-34.625,776.1904761904761,81.08333333333334,800,114" transform="matrix(1,0,0,1,0,1064)"></path><path d="M10,10C31.726190476190478,15.416666666666666,68.75,56.416666666666664,114.28571428571429,36C159.82142857142858,15.583333333333336,180.95238095238096,-90.5,228.57142857142858,-88C276.1904761904762,-85.5,295.2380952380953,30.708333333333332,342.8571428571429,48C390.4761904761905,65.29166666666667,409.5238095238095,-9.375,457.14285714285717,-5C504.7619047619048,-0.625,523.8095238095239,77.125,571.4285714285714,69C619.047619047619,60.875,638.0952380952382,-53.375,685.7142857142858,-44C733.3333333333334,-34.625,776.1904761904761,81.08333333333334,800,114" transform="matrix(1,0,0,1,0,1008)"></path><path d="M10,10C31.726190476190478,15.416666666666666,68.75,56.416666666666664,114.28571428571429,36C159.82142857142858,15.583333333333336,180.95238095238096,-90.5,228.57142857142858,-88C276.1904761904762,-85.5,295.2380952380953,30.708333333333332,342.8571428571429,48C390.4761904761905,65.29166666666667,409.5238095238095,-9.375,457.14285714285717,-5C504.7619047619048,-0.625,523.8095238095239,77.125,571.4285714285714,69C619.047619047619,60.875,638.0952380952382,-53.375,685.7142857142858,-44C733.3333333333334,-34.625,776.1904761904761,81.08333333333334,800,114" transform="matrix(1,0,0,1,0,952)"></path><path d="M10,10C31.726190476190478,15.416666666666666,68.75,56.416666666666664,114.28571428571429,36C159.82142857142858,15.583333333333336,180.95238095238096,-90.5,228.57142857142858,-88C276.1904761904762,-85.5,295.2380952380953,30.708333333333332,342.8571428571429,48C390.4761904761905,65.29166666666667,409.5238095238095,-9.375,457.14285714285717,-5C504.7619047619048,-0.625,523.8095238095239,77.125,571.4285714285714,69C619.047619047619,60.875,638.0952380952382,-53.375,685.7142857142858,-44C733.3333333333334,-34.625,776.1904761904761,81.08333333333334,800,114" transform="matrix(1,0,0,1,0,896)"></path><path d="M10,10C31.726190476190478,15.416666666666666,68.75,56.416666666666664,114.28571428571429,36C159.82142857142858,15.583333333333336,180.95238095238096,-90.5,228.57142857142858,-88C276.1904761904762,-85.5,295.2380952380953,30.708333333333332,342.8571428571429,48C390.4761904761905,65.29166666666667,409.5238095238095,-9.375,457.14285714285717,-5C504.7619047619048,-0.625,523.8095238095239,77.125,571.4285714285714,69C619.047619047619,60.875,638.0952380952382,-53.375,685.7142857142858,-44C733.3333333333334,-34.625,776.1904761904761,81.08333333333334,800,114" transform="matrix(1,0,0,1,0,840)"></path><path d="M10,10C31.726190476190478,15.416666666666666,68.75,56.416666666666664,114.28571428571429,36C159.82142857142858,15.583333333333336,180.95238095238096,-90.5,228.57142857142858,-88C276.1904761904762,-85.5,295.2380952380953,30.708333333333332,342.8571428571429,48C390.4761904761905,65.29166666666667,409.5238095238095,-9.375,457.14285714285717,-5C504.7619047619048,-0.625,523.8095238095239,77.125,571.4285714285714,69C619.047619047619,60.875,638.0952380952382,-53.375,685.7142857142858,-44C733.3333333333334,-34.625,776.1904761904761,81.08333333333334,800,114" transform="matrix(1,0,0,1,0,784)"></path><path d="M10,10C31.726190476190478,15.416666666666666,68.75,56.416666666666664,114.28571428571429,36C159.82142857142858,15.583333333333336,180.95238095238096,-90.5,228.57142857142858,-88C276.1904761904762,-85.5,295.2380952380953,30.708333333333332,342.8571428571429,48C390.4761904761905,65.29166666666667,409.5238095238095,-9.375,457.14285714285717,-5C504.7619047619048,-0.625,523.8095238095239,77.125,571.4285714285714,69C619.047619047619,60.875,638.0952380952382,-53.375,685.7142857142858,-44C733.3333333333334,-34.625,776.1904761904761,81.08333333333334,800,114" transform="matrix(1,0,0,1,0,728)"></path><path d="M10,10C31.726190476190478,15.416666666666666,68.75,56.416666666666664,114.28571428571429,36C159.82142857142858,15.583333333333336,180.95238095238096,-90.5,228.57142857142858,-88C276.1904761904762,-85.5,295.2380952380953,30.708333333333332,342.8571428571429,48C390.4761904761905,65.29166666666667,409.5238095238095,-9.375,457.14285714285717,-5C504.7619047619048,-0.625,523.8095238095239,77.125,571.4285714285714,69C619.047619047619,60.875,638.0952380952382,-53.375,685.7142857142858,-44C733.3333333333334,-34.625,776.1904761904761,81.08333333333334,800,114" transform="matrix(1,0,0,1,0,672)"></path><path d="M10,10C31.726190476190478,15.416666666666666,68.75,56.416666666666664,114.28571428571429,36C159.82142857142858,15.583333333333336,180.95238095238096,-90.5,228.57142857142858,-88C276.1904761904762,-85.5,295.2380952380953,30.708333333333332,342.8571428571429,48C390.4761904761905,65.29166666666667,409.5238095238095,-9.375,457.14285714285717,-5C504.7619047619048,-0.625,523.8095238095239,77.125,571.4285714285714,69C619.047619047619,60.875,638.0952380952382,-53.375,685.7142857142858,-44C733.3333333333334,-34.625,776.1904761904761,81.08333333333334,800,114" transform="matrix(1,0,0,1,0,616)"></path><path d="M10,10C31.726190476190478,15.416666666666666,68.75,56.416666666666664,114.28571428571429,36C159.82142857142858,15.583333333333336,180.95238095238096,-90.5,228.57142857142858,-88C276.1904761904762,-85.5,295.2380952380953,30.708333333333332,342.8571428571429,48C390.4761904761905,65.29166666666667,409.5238095238095,-9.375,457.14285714285717,-5C504.7619047619048,-0.625,523.8095238095239,77.125,571.4285714285714,69C619.047619047619,60.875,638.0952380952382,-53.375,685.7142857142858,-44C733.3333333333334,-34.625,776.1904761904761,81.08333333333334,800,114" transform="matrix(1,0,0,1,0,560)"></path><path d="M10,10C31.726190476190478,15.416666666666666,68.75,56.416666666666664,114.28571428571429,36C159.82142857142858,15.583333333333336,180.95238095238096,-90.5,228.57142857142858,-88C276.1904761904762,-85.5,295.2380952380953,30.708333333333332,342.8571428571429,48C390.4761904761905,65.29166666666667,409.5238095238095,-9.375,457.14285714285717,-5C504.7619047619048,-0.625,523.8095238095239,77.125,571.4285714285714,69C619.047619047619,60.875,638.0952380952382,-53.375,685.7142857142858,-44C733.3333333333334,-34.625,776.1904761904761,81.08333333333334,800,114" transform="matrix(1,0,0,1,0,504)"></path><path d="M10,10C31.726190476190478,15.416666666666666,68.75,56.416666666666664,114.28571428571429,36C159.82142857142858,15.583333333333336,180.95238095238096,-90.5,228.57142857142858,-88C276.1904761904762,-85.5,295.2380952380953,30.708333333333332,342.8571428571429,48C390.4761904761905,65.29166666666667,409.5238095238095,-9.375,457.14285714285717,-5C504.7619047619048,-0.625,523.8095238095239,77.125,571.4285714285714,69C619.047619047619,60.875,638.0952380952382,-53.375,685.7142857142858,-44C733.3333333333334,-34.625,776.1904761904761,81.08333333333334,800,114" transform="matrix(1,0,0,1,0,448)"></path><path d="M10,10C31.726190476190478,15.416666666666666,68.75,56.416666666666664,114.28571428571429,36C159.82142857142858,15.583333333333336,180.95238095238096,-90.5,228.57142857142858,-88C276.1904761904762,-85.5,295.2380952380953,30.708333333333332,342.8571428571429,48C390.4761904761905,65.29166666666667,409.5238095238095,-9.375,457.14285714285717,-5C504.7619047619048,-0.625,523.8095238095239,77.125,571.4285714285714,69C619.047619047619,60.875,638.0952380952382,-53.375,685.7142857142858,-44C733.3333333333334,-34.625,776.1904761904761,81.08333333333334,800,114" transform="matrix(1,0,0,1,0,392)"></path><path d="M10,10C31.726190476190478,15.416666666666666,68.75,56.416666666666664,114.28571428571429,36C159.82142857142858,15.583333333333336,180.95238095238096,-90.5,228.57142857142858,-88C276.1904761904762,-85.5,295.2380952380953,30.708333333333332,342.8571428571429,48C390.4761904761905,65.29166666666667,409.5238095238095,-9.375,457.14285714285717,-5C504.7619047619048,-0.625,523.8095238095239,77.125,571.4285714285714,69C619.047619047619,60.875,638.0952380952382,-53.375,685.7142857142858,-44C733.3333333333334,-34.625,776.1904761904761,81.08333333333334,800,114" transform="matrix(1,0,0,1,0,336)"></path><path d="M10,10C31.726190476190478,15.416666666666666,68.75,56.416666666666664,114.28571428571429,36C159.82142857142858,15.583333333333336,180.95238095238096,-90.5,228.57142857142858,-88C276.1904761904762,-85.5,295.2380952380953,30.708333333333332,342.8571428571429,48C390.4761904761905,65.29166666666667,409.5238095238095,-9.375,457.14285714285717,-5C504.7619047619048,-0.625,523.8095238095239,77.125,571.4285714285714,69C619.047619047619,60.875,638.0952380952382,-53.375,685.7142857142858,-44C733.3333333333334,-34.625,776.1904761904761,81.08333333333334,800,114" transform="matrix(1,0,0,1,0,280)"></path><path d="M10,10C31.726190476190478,15.416666666666666,68.75,56.416666666666664,114.28571428571429,36C159.82142857142858,15.583333333333336,180.95238095238096,-90.5,228.57142857142858,-88C276.1904761904762,-85.5,295.2380952380953,30.708333333333332,342.8571428571429,48C390.4761904761905,65.29166666666667,409.5238095238095,-9.375,457.14285714285717,-5C504.7619047619048,-0.625,523.8095238095239,77.125,571.4285714285714,69C619.047619047619,60.875,638.0952380952382,-53.375,685.7142857142858,-44C733.3333333333334,-34.625,776.1904761904761,81.08333333333334,800,114" transform="matrix(1,0,0,1,0,224)"></path><path d="M10,10C31.726190476190478,15.416666666666666,68.75,56.416666666666664,114.28571428571429,36C159.82142857142858,15.583333333333336,180.95238095238096,-90.5,228.57142857142858,-88C276.1904761904762,-85.5,295.2380952380953,30.708333333333332,342.8571428571429,48C390.4761904761905,65.29166666666667,409.5238095238095,-9.375,457.14285714285717,-5C504.7619047619048,-0.625,523.8095238095239,77.125,571.4285714285714,69C619.047619047619,60.875,638.0952380952382,-53.375,685.7142857142858,-44C733.3333333333334,-34.625,776.1904761904761,81.08333333333334,800,114" transform="matrix(1,0,0,1,0,168)"></path><path d="M10,10C31.726190476190478,15.416666666666666,68.75,56.416666666666664,114.28571428571429,36C159.82142857142858,15.583333333333336,180.95238095238096,-90.5,228.57142857142858,-88C276.1904761904762,-85.5,295.2380952380953,30.708333333333332,342.8571428571429,48C390.4761904761905,65.29166666666667,409.5238095238095,-9.375,457.14285714285717,-5C504.7619047619048,-0.625,523.8095238095239,77.125,571.4285714285714,69C619.047619047619,60.875,638.0952380952382,-53.375,685.7142857142858,-44C733.3333333333334,-34.625,776.1904761904761,81.08333333333334,800,114" transform="matrix(1,0,0,1,0,112)"></path><path d="M10,10C31.726190476190478,15.416666666666666,68.75,56.416666666666664,114.28571428571429,36C159.82142857142858,15.583333333333336,180.95238095238096,-90.5,228.57142857142858,-88C276.1904761904762,-85.5,295.2380952380953,30.708333333333332,342.8571428571429,48C390.4761904761905,65.29166666666667,409.5238095238095,-9.375,457.14285714285717,-5C504.7619047619048,-0.625,523.8095238095239,77.125,571.4285714285714,69C619.047619047619,60.875,638.0952380952382,-53.375,685.7142857142858,-44C733.3333333333334,-34.625,776.1904761904761,81.08333333333334,800,114" transform="matrix(1,0,0,1,0,56)"></path></g></svg>