<svg xmlns="http://www.w3.org/2000/svg" version="1.1" xmlns:xlink="http://www.w3.org/1999/xlink" xmlns:svgjs="http://svgjs.dev/svgjs" viewBox="0 0 800 800"><defs><linearGradient gradientTransform="rotate(270)" x1="50%" y1="0%" x2="50%" y2="100%" id="sssquiggly-grad"><stop stop-color="hsl(206, 75%, 49%)" stop-opacity="1" offset="0%"></stop><stop stop-color="hsla(37, 91%, 55%, 1.00)" stop-opacity="1" offset="100%"></stop></linearGradient></defs><g stroke-width="2" stroke="url(#sssquiggly-grad)" fill="none" stroke-linecap="round" transform="matrix(1,0,0,1,0,-326.9556007385254)"><path d="M10,10C21.805555555555557,10.416666666666666,40.97222222222223,21.375,66.66666666666667,12C92.36111111111111,2.625,105.55555555555557,-39.375,133.33333333333334,-35C161.11111111111111,-30.625,172.22222222222223,32.166666666666664,200,33C227.77777777777777,33.833333333333336,238.8888888888889,-29.125,266.6666666666667,-31C294.44444444444446,-32.875,305.5555555555556,17.333333333333336,333.33333333333337,24C361.11111111111114,30.666666666666664,372.22222222222223,-3.375,400,1C427.77777777777777,5.375,438.8888888888889,48.75,466.6666666666667,45C494.44444444444446,41.25,505.5555555555556,-14.916666666666666,533.3333333333334,-17C561.1111111111111,-19.083333333333332,572.2222222222222,29.583333333333336,600,35C627.7777777777778,40.416666666666664,638.8888888888889,8.791666666666666,666.6666666666667,9C694.4444444444446,9.208333333333334,707.6388888888889,35.791666666666664,733.3333333333334,36C759.0277777777778,36.208333333333336,778.1944444444445,15.416666666666666,790,10"></path><path d="M10,10C21.805555555555557,10.416666666666666,40.97222222222223,21.375,66.66666666666667,12C92.36111111111111,2.625,105.55555555555557,-39.375,133.33333333333334,-35C161.11111111111111,-30.625,172.22222222222223,32.166666666666664,200,33C227.77777777777777,33.833333333333336,238.8888888888889,-29.125,266.6666666666667,-31C294.44444444444446,-32.875,305.5555555555556,17.333333333333336,333.33333333333337,24C361.11111111111114,30.666666666666664,372.22222222222223,-3.375,400,1C427.77777777777777,5.375,438.8888888888889,48.75,466.6666666666667,45C494.44444444444446,41.25,505.5555555555556,-14.916666666666666,533.3333333333334,-17C561.1111111111111,-19.083333333333332,572.2222222222222,29.583333333333336,600,35C627.7777777777778,40.416666666666664,638.8888888888889,8.791666666666666,666.6666666666667,9C694.4444444444446,9.208333333333334,707.6388888888889,35.791666666666664,733.3333333333334,36C759.0277777777778,36.208333333333336,778.1944444444445,15.416666666666666,790,10" transform="matrix(1,0,0,1,0,1444)"></path><path d="M10,10C21.805555555555557,10.416666666666666,40.97222222222223,21.375,66.66666666666667,12C92.36111111111111,2.625,105.55555555555557,-39.375,133.33333333333334,-35C161.11111111111111,-30.625,172.22222222222223,32.166666666666664,200,33C227.77777777777777,33.833333333333336,238.8888888888889,-29.125,266.6666666666667,-31C294.44444444444446,-32.875,305.5555555555556,17.333333333333336,333.33333333333337,24C361.11111111111114,30.666666666666664,372.22222222222223,-3.375,400,1C427.77777777777777,5.375,438.8888888888889,48.75,466.6666666666667,45C494.44444444444446,41.25,505.5555555555556,-14.916666666666666,533.3333333333334,-17C561.1111111111111,-19.083333333333332,572.2222222222222,29.583333333333336,600,35C627.7777777777778,40.416666666666664,638.8888888888889,8.791666666666666,666.6666666666667,9C694.4444444444446,9.208333333333334,707.6388888888889,35.791666666666664,733.3333333333334,36C759.0277777777778,36.208333333333336,778.1944444444445,15.416666666666666,790,10" transform="matrix(1,0,0,1,0,1368)"></path><path d="M10,10C21.805555555555557,10.416666666666666,40.97222222222223,21.375,66.66666666666667,12C92.36111111111111,2.625,105.55555555555557,-39.375,133.33333333333334,-35C161.11111111111111,-30.625,172.22222222222223,32.166666666666664,200,33C227.77777777777777,33.833333333333336,238.8888888888889,-29.125,266.6666666666667,-31C294.44444444444446,-32.875,305.5555555555556,17.333333333333336,333.33333333333337,24C361.11111111111114,30.666666666666664,372.22222222222223,-3.375,400,1C427.77777777777777,5.375,438.8888888888889,48.75,466.6666666666667,45C494.44444444444446,41.25,505.5555555555556,-14.916666666666666,533.3333333333334,-17C561.1111111111111,-19.083333333333332,572.2222222222222,29.583333333333336,600,35C627.7777777777778,40.416666666666664,638.8888888888889,8.791666666666666,666.6666666666667,9C694.4444444444446,9.208333333333334,707.6388888888889,35.791666666666664,733.3333333333334,36C759.0277777777778,36.208333333333336,778.1944444444445,15.416666666666666,790,10" transform="matrix(1,0,0,1,0,1292)"></path><path d="M10,10C21.805555555555557,10.416666666666666,40.97222222222223,21.375,66.66666666666667,12C92.36111111111111,2.625,105.55555555555557,-39.375,133.33333333333334,-35C161.11111111111111,-30.625,172.22222222222223,32.166666666666664,200,33C227.77777777777777,33.833333333333336,238.8888888888889,-29.125,266.6666666666667,-31C294.44444444444446,-32.875,305.5555555555556,17.333333333333336,333.33333333333337,24C361.11111111111114,30.666666666666664,372.22222222222223,-3.375,400,1C427.77777777777777,5.375,438.8888888888889,48.75,466.6666666666667,45C494.44444444444446,41.25,505.5555555555556,-14.916666666666666,533.3333333333334,-17C561.1111111111111,-19.083333333333332,572.2222222222222,29.583333333333336,600,35C627.7777777777778,40.416666666666664,638.8888888888889,8.791666666666666,666.6666666666667,9C694.4444444444446,9.208333333333334,707.6388888888889,35.791666666666664,733.3333333333334,36C759.0277777777778,36.208333333333336,778.1944444444445,15.416666666666666,790,10" transform="matrix(1,0,0,1,0,1216)"></path><path d="M10,10C21.805555555555557,10.416666666666666,40.97222222222223,21.375,66.66666666666667,12C92.36111111111111,2.625,105.55555555555557,-39.375,133.33333333333334,-35C161.11111111111111,-30.625,172.22222222222223,32.166666666666664,200,33C227.77777777777777,33.833333333333336,238.8888888888889,-29.125,266.6666666666667,-31C294.44444444444446,-32.875,305.5555555555556,17.333333333333336,333.33333333333337,24C361.11111111111114,30.666666666666664,372.22222222222223,-3.375,400,1C427.77777777777777,5.375,438.8888888888889,48.75,466.6666666666667,45C494.44444444444446,41.25,505.5555555555556,-14.916666666666666,533.3333333333334,-17C561.1111111111111,-19.083333333333332,572.2222222222222,29.583333333333336,600,35C627.7777777777778,40.416666666666664,638.8888888888889,8.791666666666666,666.6666666666667,9C694.4444444444446,9.208333333333334,707.6388888888889,35.791666666666664,733.3333333333334,36C759.0277777777778,36.208333333333336,778.1944444444445,15.416666666666666,790,10" transform="matrix(1,0,0,1,0,1140)"></path><path d="M10,10C21.805555555555557,10.416666666666666,40.97222222222223,21.375,66.66666666666667,12C92.36111111111111,2.625,105.55555555555557,-39.375,133.33333333333334,-35C161.11111111111111,-30.625,172.22222222222223,32.166666666666664,200,33C227.77777777777777,33.833333333333336,238.8888888888889,-29.125,266.6666666666667,-31C294.44444444444446,-32.875,305.5555555555556,17.333333333333336,333.33333333333337,24C361.11111111111114,30.666666666666664,372.22222222222223,-3.375,400,1C427.77777777777777,5.375,438.8888888888889,48.75,466.6666666666667,45C494.44444444444446,41.25,505.5555555555556,-14.916666666666666,533.3333333333334,-17C561.1111111111111,-19.083333333333332,572.2222222222222,29.583333333333336,600,35C627.7777777777778,40.416666666666664,638.8888888888889,8.791666666666666,666.6666666666667,9C694.4444444444446,9.208333333333334,707.6388888888889,35.791666666666664,733.3333333333334,36C759.0277777777778,36.208333333333336,778.1944444444445,15.416666666666666,790,10" transform="matrix(1,0,0,1,0,1064)"></path><path d="M10,10C21.805555555555557,10.416666666666666,40.97222222222223,21.375,66.66666666666667,12C92.36111111111111,2.625,105.55555555555557,-39.375,133.33333333333334,-35C161.11111111111111,-30.625,172.22222222222223,32.166666666666664,200,33C227.77777777777777,33.833333333333336,238.8888888888889,-29.125,266.6666666666667,-31C294.44444444444446,-32.875,305.5555555555556,17.333333333333336,333.33333333333337,24C361.11111111111114,30.666666666666664,372.22222222222223,-3.375,400,1C427.77777777777777,5.375,438.8888888888889,48.75,466.6666666666667,45C494.44444444444446,41.25,505.5555555555556,-14.916666666666666,533.3333333333334,-17C561.1111111111111,-19.083333333333332,572.2222222222222,29.583333333333336,600,35C627.7777777777778,40.416666666666664,638.8888888888889,8.791666666666666,666.6666666666667,9C694.4444444444446,9.208333333333334,707.6388888888889,35.791666666666664,733.3333333333334,36C759.0277777777778,36.208333333333336,778.1944444444445,15.416666666666666,790,10" transform="matrix(1,0,0,1,0,988)"></path><path d="M10,10C21.805555555555557,10.416666666666666,40.97222222222223,21.375,66.66666666666667,12C92.36111111111111,2.625,105.55555555555557,-39.375,133.33333333333334,-35C161.11111111111111,-30.625,172.22222222222223,32.166666666666664,200,33C227.77777777777777,33.833333333333336,238.8888888888889,-29.125,266.6666666666667,-31C294.44444444444446,-32.875,305.5555555555556,17.333333333333336,333.33333333333337,24C361.11111111111114,30.666666666666664,372.22222222222223,-3.375,400,1C427.77777777777777,5.375,438.8888888888889,48.75,466.6666666666667,45C494.44444444444446,41.25,505.5555555555556,-14.916666666666666,533.3333333333334,-17C561.1111111111111,-19.083333333333332,572.2222222222222,29.583333333333336,600,35C627.7777777777778,40.416666666666664,638.8888888888889,8.791666666666666,666.6666666666667,9C694.4444444444446,9.208333333333334,707.6388888888889,35.791666666666664,733.3333333333334,36C759.0277777777778,36.208333333333336,778.1944444444445,15.416666666666666,790,10" transform="matrix(1,0,0,1,0,912)"></path><path d="M10,10C21.805555555555557,10.416666666666666,40.97222222222223,21.375,66.66666666666667,12C92.36111111111111,2.625,105.55555555555557,-39.375,133.33333333333334,-35C161.11111111111111,-30.625,172.22222222222223,32.166666666666664,200,33C227.77777777777777,33.833333333333336,238.8888888888889,-29.125,266.6666666666667,-31C294.44444444444446,-32.875,305.5555555555556,17.333333333333336,333.33333333333337,24C361.11111111111114,30.666666666666664,372.22222222222223,-3.375,400,1C427.77777777777777,5.375,438.8888888888889,48.75,466.6666666666667,45C494.44444444444446,41.25,505.5555555555556,-14.916666666666666,533.3333333333334,-17C561.1111111111111,-19.083333333333332,572.2222222222222,29.583333333333336,600,35C627.7777777777778,40.416666666666664,638.8888888888889,8.791666666666666,666.6666666666667,9C694.4444444444446,9.208333333333334,707.6388888888889,35.791666666666664,733.3333333333334,36C759.0277777777778,36.208333333333336,778.1944444444445,15.416666666666666,790,10" transform="matrix(1,0,0,1,0,836)"></path><path d="M10,10C21.805555555555557,10.416666666666666,40.97222222222223,21.375,66.66666666666667,12C92.36111111111111,2.625,105.55555555555557,-39.375,133.33333333333334,-35C161.11111111111111,-30.625,172.22222222222223,32.166666666666664,200,33C227.77777777777777,33.833333333333336,238.8888888888889,-29.125,266.6666666666667,-31C294.44444444444446,-32.875,305.5555555555556,17.333333333333336,333.33333333333337,24C361.11111111111114,30.666666666666664,372.22222222222223,-3.375,400,1C427.77777777777777,5.375,438.8888888888889,48.75,466.6666666666667,45C494.44444444444446,41.25,505.5555555555556,-14.916666666666666,533.3333333333334,-17C561.1111111111111,-19.083333333333332,572.2222222222222,29.583333333333336,600,35C627.7777777777778,40.416666666666664,638.8888888888889,8.791666666666666,666.6666666666667,9C694.4444444444446,9.208333333333334,707.6388888888889,35.791666666666664,733.3333333333334,36C759.0277777777778,36.208333333333336,778.1944444444445,15.416666666666666,790,10" transform="matrix(1,0,0,1,0,760)"></path><path d="M10,10C21.805555555555557,10.416666666666666,40.97222222222223,21.375,66.66666666666667,12C92.36111111111111,2.625,105.55555555555557,-39.375,133.33333333333334,-35C161.11111111111111,-30.625,172.22222222222223,32.166666666666664,200,33C227.77777777777777,33.833333333333336,238.8888888888889,-29.125,266.6666666666667,-31C294.44444444444446,-32.875,305.5555555555556,17.333333333333336,333.33333333333337,24C361.11111111111114,30.666666666666664,372.22222222222223,-3.375,400,1C427.77777777777777,5.375,438.8888888888889,48.75,466.6666666666667,45C494.44444444444446,41.25,505.5555555555556,-14.916666666666666,533.3333333333334,-17C561.1111111111111,-19.083333333333332,572.2222222222222,29.583333333333336,600,35C627.7777777777778,40.416666666666664,638.8888888888889,8.791666666666666,666.6666666666667,9C694.4444444444446,9.208333333333334,707.6388888888889,35.791666666666664,733.3333333333334,36C759.0277777777778,36.208333333333336,778.1944444444445,15.416666666666666,790,10" transform="matrix(1,0,0,1,0,684)"></path><path d="M10,10C21.805555555555557,10.416666666666666,40.97222222222223,21.375,66.66666666666667,12C92.36111111111111,2.625,105.55555555555557,-39.375,133.33333333333334,-35C161.11111111111111,-30.625,172.22222222222223,32.166666666666664,200,33C227.77777777777777,33.833333333333336,238.8888888888889,-29.125,266.6666666666667,-31C294.44444444444446,-32.875,305.5555555555556,17.333333333333336,333.33333333333337,24C361.11111111111114,30.666666666666664,372.22222222222223,-3.375,400,1C427.77777777777777,5.375,438.8888888888889,48.75,466.6666666666667,45C494.44444444444446,41.25,505.5555555555556,-14.916666666666666,533.3333333333334,-17C561.1111111111111,-19.083333333333332,572.2222222222222,29.583333333333336,600,35C627.7777777777778,40.416666666666664,638.8888888888889,8.791666666666666,666.6666666666667,9C694.4444444444446,9.208333333333334,707.6388888888889,35.791666666666664,733.3333333333334,36C759.0277777777778,36.208333333333336,778.1944444444445,15.416666666666666,790,10" transform="matrix(1,0,0,1,0,608)"></path><path d="M10,10C21.805555555555557,10.416666666666666,40.97222222222223,21.375,66.66666666666667,12C92.36111111111111,2.625,105.55555555555557,-39.375,133.33333333333334,-35C161.11111111111111,-30.625,172.22222222222223,32.166666666666664,200,33C227.77777777777777,33.833333333333336,238.8888888888889,-29.125,266.6666666666667,-31C294.44444444444446,-32.875,305.5555555555556,17.333333333333336,333.33333333333337,24C361.11111111111114,30.666666666666664,372.22222222222223,-3.375,400,1C427.77777777777777,5.375,438.8888888888889,48.75,466.6666666666667,45C494.44444444444446,41.25,505.5555555555556,-14.916666666666666,533.3333333333334,-17C561.1111111111111,-19.083333333333332,572.2222222222222,29.583333333333336,600,35C627.7777777777778,40.416666666666664,638.8888888888889,8.791666666666666,666.6666666666667,9C694.4444444444446,9.208333333333334,707.6388888888889,35.791666666666664,733.3333333333334,36C759.0277777777778,36.208333333333336,778.1944444444445,15.416666666666666,790,10" transform="matrix(1,0,0,1,0,532)"></path><path d="M10,10C21.805555555555557,10.416666666666666,40.97222222222223,21.375,66.66666666666667,12C92.36111111111111,2.625,105.55555555555557,-39.375,133.33333333333334,-35C161.11111111111111,-30.625,172.22222222222223,32.166666666666664,200,33C227.77777777777777,33.833333333333336,238.8888888888889,-29.125,266.6666666666667,-31C294.44444444444446,-32.875,305.5555555555556,17.333333333333336,333.33333333333337,24C361.11111111111114,30.666666666666664,372.22222222222223,-3.375,400,1C427.77777777777777,5.375,438.8888888888889,48.75,466.6666666666667,45C494.44444444444446,41.25,505.5555555555556,-14.916666666666666,533.3333333333334,-17C561.1111111111111,-19.083333333333332,572.2222222222222,29.583333333333336,600,35C627.7777777777778,40.416666666666664,638.8888888888889,8.791666666666666,666.6666666666667,9C694.4444444444446,9.208333333333334,707.6388888888889,35.791666666666664,733.3333333333334,36C759.0277777777778,36.208333333333336,778.1944444444445,15.416666666666666,790,10" transform="matrix(1,0,0,1,0,456)"></path><path d="M10,10C21.805555555555557,10.416666666666666,40.97222222222223,21.375,66.66666666666667,12C92.36111111111111,2.625,105.55555555555557,-39.375,133.33333333333334,-35C161.11111111111111,-30.625,172.22222222222223,32.166666666666664,200,33C227.77777777777777,33.833333333333336,238.8888888888889,-29.125,266.6666666666667,-31C294.44444444444446,-32.875,305.5555555555556,17.333333333333336,333.33333333333337,24C361.11111111111114,30.666666666666664,372.22222222222223,-3.375,400,1C427.77777777777777,5.375,438.8888888888889,48.75,466.6666666666667,45C494.44444444444446,41.25,505.5555555555556,-14.916666666666666,533.3333333333334,-17C561.1111111111111,-19.083333333333332,572.2222222222222,29.583333333333336,600,35C627.7777777777778,40.416666666666664,638.8888888888889,8.791666666666666,666.6666666666667,9C694.4444444444446,9.208333333333334,707.6388888888889,35.791666666666664,733.3333333333334,36C759.0277777777778,36.208333333333336,778.1944444444445,15.416666666666666,790,10" transform="matrix(1,0,0,1,0,380)"></path><path d="M10,10C21.805555555555557,10.416666666666666,40.97222222222223,21.375,66.66666666666667,12C92.36111111111111,2.625,105.55555555555557,-39.375,133.33333333333334,-35C161.11111111111111,-30.625,172.22222222222223,32.166666666666664,200,33C227.77777777777777,33.833333333333336,238.8888888888889,-29.125,266.6666666666667,-31C294.44444444444446,-32.875,305.5555555555556,17.333333333333336,333.33333333333337,24C361.11111111111114,30.666666666666664,372.22222222222223,-3.375,400,1C427.77777777777777,5.375,438.8888888888889,48.75,466.6666666666667,45C494.44444444444446,41.25,505.5555555555556,-14.916666666666666,533.3333333333334,-17C561.1111111111111,-19.083333333333332,572.2222222222222,29.583333333333336,600,35C627.7777777777778,40.416666666666664,638.8888888888889,8.791666666666666,666.6666666666667,9C694.4444444444446,9.208333333333334,707.6388888888889,35.791666666666664,733.3333333333334,36C759.0277777777778,36.208333333333336,778.1944444444445,15.416666666666666,790,10" transform="matrix(1,0,0,1,0,304)"></path><path d="M10,10C21.805555555555557,10.416666666666666,40.97222222222223,21.375,66.66666666666667,12C92.36111111111111,2.625,105.55555555555557,-39.375,133.33333333333334,-35C161.11111111111111,-30.625,172.22222222222223,32.166666666666664,200,33C227.77777777777777,33.833333333333336,238.8888888888889,-29.125,266.6666666666667,-31C294.44444444444446,-32.875,305.5555555555556,17.333333333333336,333.33333333333337,24C361.11111111111114,30.666666666666664,372.22222222222223,-3.375,400,1C427.77777777777777,5.375,438.8888888888889,48.75,466.6666666666667,45C494.44444444444446,41.25,505.5555555555556,-14.916666666666666,533.3333333333334,-17C561.1111111111111,-19.083333333333332,572.2222222222222,29.583333333333336,600,35C627.7777777777778,40.416666666666664,638.8888888888889,8.791666666666666,666.6666666666667,9C694.4444444444446,9.208333333333334,707.6388888888889,35.791666666666664,733.3333333333334,36C759.0277777777778,36.208333333333336,778.1944444444445,15.416666666666666,790,10" transform="matrix(1,0,0,1,0,228)"></path><path d="M10,10C21.805555555555557,10.416666666666666,40.97222222222223,21.375,66.66666666666667,12C92.36111111111111,2.625,105.55555555555557,-39.375,133.33333333333334,-35C161.11111111111111,-30.625,172.22222222222223,32.166666666666664,200,33C227.77777777777777,33.833333333333336,238.8888888888889,-29.125,266.6666666666667,-31C294.44444444444446,-32.875,305.5555555555556,17.333333333333336,333.33333333333337,24C361.11111111111114,30.666666666666664,372.22222222222223,-3.375,400,1C427.77777777777777,5.375,438.8888888888889,48.75,466.6666666666667,45C494.44444444444446,41.25,505.5555555555556,-14.916666666666666,533.3333333333334,-17C561.1111111111111,-19.083333333333332,572.2222222222222,29.583333333333336,600,35C627.7777777777778,40.416666666666664,638.8888888888889,8.791666666666666,666.6666666666667,9C694.4444444444446,9.208333333333334,707.6388888888889,35.791666666666664,733.3333333333334,36C759.0277777777778,36.208333333333336,778.1944444444445,15.416666666666666,790,10" transform="matrix(1,0,0,1,0,152)"></path><path d="M10,10C21.805555555555557,10.416666666666666,40.97222222222223,21.375,66.66666666666667,12C92.36111111111111,2.625,105.55555555555557,-39.375,133.33333333333334,-35C161.11111111111111,-30.625,172.22222222222223,32.166666666666664,200,33C227.77777777777777,33.833333333333336,238.8888888888889,-29.125,266.6666666666667,-31C294.44444444444446,-32.875,305.5555555555556,17.333333333333336,333.33333333333337,24C361.11111111111114,30.666666666666664,372.22222222222223,-3.375,400,1C427.77777777777777,5.375,438.8888888888889,48.75,466.6666666666667,45C494.44444444444446,41.25,505.5555555555556,-14.916666666666666,533.3333333333334,-17C561.1111111111111,-19.083333333333332,572.2222222222222,29.583333333333336,600,35C627.7777777777778,40.416666666666664,638.8888888888889,8.791666666666666,666.6666666666667,9C694.4444444444446,9.208333333333334,707.6388888888889,35.791666666666664,733.3333333333334,36C759.0277777777778,36.208333333333336,778.1944444444445,15.416666666666666,790,10" transform="matrix(1,0,0,1,0,76)"></path></g></svg>