<svg xmlns="http://www.w3.org/2000/svg" version="1.1" xmlns:xlink="http://www.w3.org/1999/xlink"
     xmlns:svgjs="http://svgjs.dev/svgjs" viewBox="0 0 2400 800" opacity="1">
    <defs>
        <linearGradient x1="50%" y1="0%" x2="50%" y2="100%" id="sssurf-grad">
            <stop stop-color="#0f6cbdff" stop-opacity="1" offset="0%"></stop>
            <stop stop-color="#eef2ffff" stop-opacity="1" offset="100%"></stop>
        </linearGradient>
    </defs>
    <g fill="url(#sssurf-grad)" transform="matrix(1,0,0,1,0,-150.86074829101562)">
        <path d="M 0 402.6672291948924 Q 201.52733952186844 450 342.85714285714283 285.2506704044055 Q 557.8809128429602 450 685.7142857142857 332.1306677752783 Q 835.880768259815 450 1028.5714285714284 339.67649901321215 Q 1158.7103263202187 450 1371.4285714285713 388.45814853502003 Q 1590.7308416386265 450 1714.2857142857142 387.85188853146695 Q 1941.5636727741637 450 2057.142857142857 337.37791436631414 Q 2226.8613805014484 450 2400 263.721480771752 L 2400 800 L 0 800 L 0 377.3119588537907 Z"
              transform="matrix(1,0,0,1,0,73)" opacity="0.05"></path>
        <path d="M 0 402.6672291948924 Q 201.52733952186844 450 342.85714285714283 285.2506704044055 Q 557.8809128429602 450 685.7142857142857 332.1306677752783 Q 835.880768259815 450 1028.5714285714284 339.67649901321215 Q 1158.7103263202187 450 1371.4285714285713 388.45814853502003 Q 1590.7308416386265 450 1714.2857142857142 387.85188853146695 Q 1941.5636727741637 450 2057.142857142857 337.37791436631414 Q 2226.8613805014484 450 2400 263.721480771752 L 2400 800 L 0 800 L 0 377.3119588537907 Z"
              transform="matrix(1,0,0,1,0,146)" opacity="0.29"></path>
        <path d="M 0 402.6672291948924 Q 201.52733952186844 450 342.85714285714283 285.2506704044055 Q 557.8809128429602 450 685.7142857142857 332.1306677752783 Q 835.880768259815 450 1028.5714285714284 339.67649901321215 Q 1158.7103263202187 450 1371.4285714285713 388.45814853502003 Q 1590.7308416386265 450 1714.2857142857142 387.85188853146695 Q 1941.5636727741637 450 2057.142857142857 337.37791436631414 Q 2226.8613805014484 450 2400 263.721480771752 L 2400 800 L 0 800 L 0 377.3119588537907 Z"
              transform="matrix(1,0,0,1,0,219)" opacity="0.53"></path>
        <path d="M 0 402.6672291948924 Q 201.52733952186844 450 342.85714285714283 285.2506704044055 Q 557.8809128429602 450 685.7142857142857 332.1306677752783 Q 835.880768259815 450 1028.5714285714284 339.67649901321215 Q 1158.7103263202187 450 1371.4285714285713 388.45814853502003 Q 1590.7308416386265 450 1714.2857142857142 387.85188853146695 Q 1941.5636727741637 450 2057.142857142857 337.37791436631414 Q 2226.8613805014484 450 2400 263.721480771752 L 2400 800 L 0 800 L 0 377.3119588537907 Z"
              transform="matrix(1,0,0,1,0,292)" opacity="0.76"></path>
        <path d="M 0 402.6672291948924 Q 201.52733952186844 450 342.85714285714283 285.2506704044055 Q 557.8809128429602 450 685.7142857142857 332.1306677752783 Q 835.880768259815 450 1028.5714285714284 339.67649901321215 Q 1158.7103263202187 450 1371.4285714285713 388.45814853502003 Q 1590.7308416386265 450 1714.2857142857142 387.85188853146695 Q 1941.5636727741637 450 2057.142857142857 337.37791436631414 Q 2226.8613805014484 450 2400 263.721480771752 L 2400 800 L 0 800 L 0 377.3119588537907 Z"
              transform="matrix(1,0,0,1,0,365)" opacity="1.00"></path>
    </g>
</svg>