<svg xmlns="http://www.w3.org/2000/svg" version="1.1" xmlns:xlink="http://www.w3.org/1999/xlink"
     xmlns:svgjs="http://svgjs.dev/svgjs" viewBox="0 0 800 800" opacity="1">
    <defs>
        <linearGradient x1="50%" y1="0%" x2="50%" y2="100%" id="vvvortex-grad">
            <stop stop-color="#0f6cbd" stop-opacity="1" offset="0%"></stop>
            <stop stop-color="#f5a525" stop-opacity="1" offset="100%"></stop>
        </linearGradient>
    </defs>
    <g stroke="url(#vvvortex-grad)" fill="none" stroke-linecap="round">
        <circle r="340" cx="400" cy="400" stroke-width="13" stroke-dasharray="27 21" stroke-dashoffset="25"
                transform="rotate(20, 400, 400)" opacity="0.05"></circle>
        <circle r="323" cx="400" cy="400" stroke-width="12" stroke-dasharray="53 45" stroke-dashoffset="25"
                transform="rotate(312, 400, 400)" opacity="0.10"></circle>
        <circle r="306" cx="400" cy="400" stroke-width="12" stroke-dasharray="21 33" stroke-dashoffset="25"
                transform="rotate(317, 400, 400)" opacity="0.15"></circle>
        <circle r="289" cx="400" cy="400" stroke-width="12" stroke-dasharray="44 51" stroke-dashoffset="25"
                transform="rotate(353, 400, 400)" opacity="0.20"></circle>
        <circle r="272" cx="400" cy="400" stroke-width="11" stroke-dasharray="48 20" stroke-dashoffset="25"
                transform="rotate(120, 400, 400)" opacity="0.25"></circle>
        <circle r="255" cx="400" cy="400" stroke-width="11" stroke-dasharray="54 43" stroke-dashoffset="25"
                transform="rotate(187, 400, 400)" opacity="0.30"></circle>
        <circle r="238" cx="400" cy="400" stroke-width="11" stroke-dasharray="19 25" stroke-dashoffset="25"
                transform="rotate(110, 400, 400)" opacity="0.35"></circle>
        <circle r="221" cx="400" cy="400" stroke-width="10" stroke-dasharray="13 48" stroke-dashoffset="25"
                transform="rotate(229, 400, 400)" opacity="0.40"></circle>
        <circle r="204" cx="400" cy="400" stroke-width="10" stroke-dasharray="24 23" stroke-dashoffset="25"
                transform="rotate(172, 400, 400)" opacity="0.45"></circle>
        <circle r="187" cx="400" cy="400" stroke-width="10" stroke-dasharray="19 51" stroke-dashoffset="25"
                transform="rotate(292, 400, 400)" opacity="0.50"></circle>
        <circle r="170" cx="400" cy="400" stroke-width="9" stroke-dasharray="43 53" stroke-dashoffset="25"
                transform="rotate(98, 400, 400)" opacity="0.55"></circle>
        <circle r="153" cx="400" cy="400" stroke-width="9" stroke-dasharray="36 49" stroke-dashoffset="25"
                transform="rotate(325, 400, 400)" opacity="0.60"></circle>
        <circle r="136" cx="400" cy="400" stroke-width="9" stroke-dasharray="41 14" stroke-dashoffset="25"
                transform="rotate(278, 400, 400)" opacity="0.65"></circle>
        <circle r="119" cx="400" cy="400" stroke-width="8" stroke-dasharray="13 21" stroke-dashoffset="25"
                transform="rotate(100, 400, 400)" opacity="0.70"></circle>
        <circle r="102" cx="400" cy="400" stroke-width="8" stroke-dasharray="22 47" stroke-dashoffset="25"
                transform="rotate(336, 400, 400)" opacity="0.75"></circle>
        <circle r="85" cx="400" cy="400" stroke-width="8" stroke-dasharray="11 26" stroke-dashoffset="25"
                transform="rotate(50, 400, 400)" opacity="0.80"></circle>
        <circle r="68" cx="400" cy="400" stroke-width="7" stroke-dasharray="28 11" stroke-dashoffset="25"
                transform="rotate(178, 400, 400)" opacity="0.85"></circle>
        <circle r="51" cx="400" cy="400" stroke-width="7" stroke-dasharray="38 52" stroke-dashoffset="25"
                transform="rotate(40, 400, 400)" opacity="0.90"></circle>
        <circle r="34" cx="400" cy="400" stroke-width="7" stroke-dasharray="44 47" stroke-dashoffset="25"
                transform="rotate(22, 400, 400)" opacity="0.95"></circle>
        <circle r="17" cx="400" cy="400" stroke-width="7" stroke-dasharray="20 25" stroke-dashoffset="25"
                transform="rotate(356, 400, 400)" opacity="1.00"></circle>
    </g>
</svg>