<?xml version="1.0" encoding="UTF-8" standalone="no"?>
<!DOCTYPE svg PUBLIC "-//W3C//DTD SVG 1.1//EN"
 "http://www.w3.org/Graphics/SVG/1.1/DTD/svg11.dtd">
<!-- Generated by graphviz version 14.0.2 (20251019.1705)
 -->
<!-- Title: login_refresh_flow Pages: 1 -->
<svg width="518pt" height="513pt"
 viewBox="0.00 0.00 518.00 513.00" xmlns="http://www.w3.org/2000/svg" xmlns:xlink="http://www.w3.org/1999/xlink">
<g id="graph0" class="graph" transform="scale(1 1) rotate(0) translate(4 509)">
<title>login_refresh_flow</title>
<polygon fill="white" stroke="none" points="-4,4 -4,-509 514,-509 514,4 -4,4"/>
<!-- LOGIN -->
<g id="node1" class="node">
<title>LOGIN</title>
<polygon fill="none" stroke="black" points="90,-505 18,-505 18,-469 90,-469 90,-505"/>
<text xml:space="preserve" text-anchor="middle" x="54" y="-489.5" font-family="GOST Type A,Arial" font-size="10.00">UI</text>
<text xml:space="preserve" text-anchor="middle" x="54" y="-477.5" font-family="GOST Type A,Arial" font-size="10.00">Логин</text>
</g>
<!-- POSTL -->
<g id="node2" class="node">
<title>POSTL</title>
<polygon fill="none" stroke="black" points="198,-505 126,-505 126,-469 198,-469 198,-505"/>
<text xml:space="preserve" text-anchor="middle" x="162" y="-483.5" font-family="GOST Type A,Arial" font-size="10.00">POST /login</text>
</g>
<!-- LOGIN&#45;&gt;POSTL -->
<g id="edge1" class="edge">
<title>LOGIN&#45;&gt;POSTL</title>
<path fill="none" stroke="black" d="M90.28,-487C98.28,-487 106.28,-487 114.27,-487"/>
<polygon fill="black" stroke="black" points="114.07,-490.5 124.07,-487 114.07,-483.5 114.07,-490.5"/>
</g>
<!-- DECUSR -->
<g id="node3" class="node">
<title>DECUSR</title>
<polygon fill="none" stroke="black" points="36,-432 0,-414 36,-396 72,-414 36,-432"/>
<text xml:space="preserve" text-anchor="middle" x="36" y="-416.5" font-family="GOST Type A,Arial" font-size="10.00">Есть</text>
<text xml:space="preserve" text-anchor="middle" x="36" y="-404.5" font-family="GOST Type A,Arial" font-size="10.00">пользователь?</text>
</g>
<!-- POSTL&#45;&gt;DECUSR -->
<g id="edge2" class="edge">
<title>POSTL&#45;&gt;DECUSR</title>
<path fill="none" stroke="black" d="M131.18,-468.63C110.06,-456.73 82.34,-441.11 62.27,-429.8"/>
<polygon fill="black" stroke="black" points="64.02,-426.77 53.59,-424.91 60.58,-432.87 64.02,-426.77"/>
</g>
<!-- DECPASS -->
<g id="node5" class="node">
<title>DECPASS</title>
<polygon fill="none" stroke="black" points="147,-343.5 111,-325.5 147,-307.5 183,-325.5 147,-343.5"/>
<text xml:space="preserve" text-anchor="middle" x="147" y="-328" font-family="GOST Type A,Arial" font-size="10.00">Пароль</text>
<text xml:space="preserve" text-anchor="middle" x="147" y="-316" font-family="GOST Type A,Arial" font-size="10.00">верен?</text>
</g>
<!-- POSTL&#45;&gt;DECPASS -->
<!-- ERR401 -->
<g id="node4" class="node">
<title>ERR401</title>
<polygon fill="none" stroke="black" points="184,-432 112,-432 112,-396 184,-396 184,-432"/>
<text xml:space="preserve" text-anchor="middle" x="148" y="-410.5" font-family="GOST Type A,Arial" font-size="10.00">401</text>
</g>
<!-- DECUSR&#45;&gt;ERR401 -->
<g id="edge4" class="edge">
<title>DECUSR&#45;&gt;ERR401</title>
<path fill="none" stroke="black" d="M72.98,-414C81.76,-414 91.25,-414 100.43,-414"/>
<polygon fill="black" stroke="black" points="100.3,-417.5 110.3,-414 100.3,-410.5 100.3,-417.5"/>
<text xml:space="preserve" text-anchor="middle" x="92" y="-420.2" font-family="Times New Roman,serif" font-size="14.00">Нет</text>
</g>
<!-- DECUSR&#45;&gt;DECPASS -->
<g id="edge3" class="edge">
<title>DECUSR&#45;&gt;DECPASS</title>
<path fill="none" stroke="black" d="M49.61,-402.39C68.25,-387.87 101.97,-361.59 124.42,-344.1"/>
<polygon fill="black" stroke="black" points="126.35,-347.03 132.08,-338.12 122.04,-341.51 126.35,-347.03"/>
<text xml:space="preserve" text-anchor="middle" x="109.32" y="-364.7" font-family="Times New Roman,serif" font-size="14.00">Да</text>
</g>
<!-- ERR401&#45;&gt;DECPASS -->
<!-- DECPASS&#45;&gt;ERR401 -->
<g id="edge6" class="edge">
<title>DECPASS&#45;&gt;ERR401</title>
<path fill="none" stroke="black" d="M138.61,-339.46C132.96,-349.78 127.06,-364.65 130.25,-378 130.84,-380.48 131.64,-382.98 132.57,-385.44"/>
<polygon fill="black" stroke="black" points="129.33,-386.78 136.65,-394.44 135.71,-383.89 129.33,-386.78"/>
<text xml:space="preserve" text-anchor="middle" x="141.12" y="-364.7" font-family="Times New Roman,serif" font-size="14.00">Нет</text>
</g>
<!-- ISSUE -->
<g id="node6" class="node">
<title>ISSUE</title>
<polygon fill="none" stroke="black" points="291,-343.5 219,-343.5 219,-307.5 291,-307.5 291,-343.5"/>
<text xml:space="preserve" text-anchor="middle" x="255" y="-328" font-family="GOST Type A,Arial" font-size="10.00">Токены</text>
<text xml:space="preserve" text-anchor="middle" x="255" y="-316" font-family="GOST Type A,Arial" font-size="10.00">выдать</text>
</g>
<!-- DECPASS&#45;&gt;ISSUE -->
<g id="edge5" class="edge">
<title>DECPASS&#45;&gt;ISSUE</title>
<path fill="none" stroke="black" d="M183.87,-325.5C191.42,-325.5 199.47,-325.5 207.34,-325.5"/>
<polygon fill="black" stroke="black" points="207.15,-329 217.15,-325.5 207.15,-322 207.15,-329"/>
<text xml:space="preserve" text-anchor="middle" x="201" y="-331.7" font-family="Times New Roman,serif" font-size="14.00">Да</text>
</g>
<!-- OK200 -->
<g id="node7" class="node">
<title>OK200</title>
<polygon fill="none" stroke="black" points="168,-270.5 96,-270.5 96,-234.5 168,-234.5 168,-270.5"/>
<text xml:space="preserve" text-anchor="middle" x="132" y="-249" font-family="GOST Type A,Arial" font-size="10.00">200 Tokens</text>
</g>
<!-- ISSUE&#45;&gt;OK200 -->
<g id="edge7" class="edge">
<title>ISSUE&#45;&gt;OK200</title>
<path fill="none" stroke="black" d="M224.91,-307.13C208.98,-297.93 189.2,-286.52 171.99,-276.58"/>
<polygon fill="black" stroke="black" points="173.93,-273.66 163.52,-271.69 170.43,-279.72 173.93,-273.66"/>
</g>
<!-- EXPA -->
<g id="node9" class="node">
<title>EXPA</title>
<polygon fill="none" stroke="black" points="276,-197.5 204,-197.5 204,-161.5 276,-161.5 276,-197.5"/>
<text xml:space="preserve" text-anchor="middle" x="240" y="-182" font-family="GOST Type A,Arial" font-size="10.00">Access</text>
<text xml:space="preserve" text-anchor="middle" x="240" y="-170" font-family="GOST Type A,Arial" font-size="10.00">истек</text>
</g>
<!-- ISSUE&#45;&gt;EXPA -->
<!-- STORE -->
<g id="node8" class="node">
<title>STORE</title>
<polygon fill="none" stroke="black" points="276,-270.5 204,-270.5 204,-234.5 276,-234.5 276,-270.5"/>
<text xml:space="preserve" text-anchor="middle" x="240" y="-255" font-family="GOST Type A,Arial" font-size="10.00">Store</text>
<text xml:space="preserve" text-anchor="middle" x="240" y="-243" font-family="GOST Type A,Arial" font-size="10.00">refresh</text>
</g>
<!-- OK200&#45;&gt;STORE -->
<g id="edge8" class="edge">
<title>OK200&#45;&gt;STORE</title>
<path fill="none" stroke="black" d="M168.28,-252.5C176.28,-252.5 184.28,-252.5 192.27,-252.5"/>
<polygon fill="black" stroke="black" points="192.07,-256 202.07,-252.5 192.07,-249 192.07,-256"/>
</g>
<!-- STORE&#45;&gt;EXPA -->
<g id="edge9" class="edge">
<title>STORE&#45;&gt;EXPA</title>
<path fill="none" stroke="black" d="M234.12,-234.31C233.32,-226.64 233.07,-217.39 233.38,-208.74"/>
<polygon fill="black" stroke="black" points="236.85,-209.25 234.04,-199.04 229.87,-208.78 236.85,-209.25"/>
</g>
<!-- STORE&#45;&gt;EXPA -->
<!-- POSTR -->
<g id="node10" class="node">
<title>POSTR</title>
<polygon fill="none" stroke="black" points="384,-197.5 312,-197.5 312,-161.5 384,-161.5 384,-197.5"/>
<text xml:space="preserve" text-anchor="middle" x="348" y="-176" font-family="GOST Type A,Arial" font-size="10.00">POST /refresh</text>
</g>
<!-- EXPA&#45;&gt;POSTR -->
<g id="edge10" class="edge">
<title>EXPA&#45;&gt;POSTR</title>
<path fill="none" stroke="black" d="M276.28,-179.5C284.28,-179.5 292.28,-179.5 300.27,-179.5"/>
<polygon fill="black" stroke="black" points="300.07,-183 310.07,-179.5 300.07,-176 300.07,-183"/>
</g>
<!-- DECRF -->
<g id="node11" class="node">
<title>DECRF</title>
<polygon fill="none" stroke="black" points="348,-124.5 312,-106.5 348,-88.5 384,-106.5 348,-124.5"/>
<text xml:space="preserve" text-anchor="middle" x="348" y="-109" font-family="GOST Type A,Arial" font-size="10.00">Refresh</text>
<text xml:space="preserve" text-anchor="middle" x="348" y="-97" font-family="GOST Type A,Arial" font-size="10.00">валиден?</text>
</g>
<!-- POSTR&#45;&gt;DECRF -->
<g id="edge11" class="edge">
<title>POSTR&#45;&gt;DECRF</title>
<path fill="none" stroke="black" d="M348,-161.31C348,-153.84 348,-144.87 348,-136.42"/>
<polygon fill="black" stroke="black" points="351.5,-136.54 348,-126.54 344.5,-136.54 351.5,-136.54"/>
</g>
<!-- ERR401R -->
<g id="node12" class="node">
<title>ERR401R</title>
<polygon fill="none" stroke="black" points="496,-124.5 424,-124.5 424,-88.5 496,-88.5 496,-124.5"/>
<text xml:space="preserve" text-anchor="middle" x="460" y="-109" font-family="GOST Type A,Arial" font-size="10.00">401</text>
<text xml:space="preserve" text-anchor="middle" x="460" y="-97" font-family="GOST Type A,Arial" font-size="10.00">Login</text>
</g>
<!-- DECRF&#45;&gt;ERR401R -->
<g id="edge13" class="edge">
<title>DECRF&#45;&gt;ERR401R</title>
<path fill="none" stroke="black" d="M384.98,-106.5C393.76,-106.5 403.25,-106.5 412.43,-106.5"/>
<polygon fill="black" stroke="black" points="412.3,-110 422.3,-106.5 412.3,-103 412.3,-110"/>
<text xml:space="preserve" text-anchor="middle" x="404" y="-112.7" font-family="Times New Roman,serif" font-size="14.00">Нет</text>
</g>
<!-- ROTATE -->
<g id="node13" class="node">
<title>ROTATE</title>
<polygon fill="none" stroke="black" points="384,-36 312,-36 312,0 384,0 384,-36"/>
<text xml:space="preserve" text-anchor="middle" x="348" y="-14.5" font-family="GOST Type A,Arial" font-size="10.00">Ротация</text>
</g>
<!-- DECRF&#45;&gt;ROTATE -->
<g id="edge12" class="edge">
<title>DECRF&#45;&gt;ROTATE</title>
<path fill="none" stroke="black" d="M348,-88C348,-76.51 348,-61.2 348,-47.93"/>
<polygon fill="black" stroke="black" points="351.5,-47.99 348,-37.99 344.5,-47.99 351.5,-47.99"/>
<text xml:space="preserve" text-anchor="middle" x="355.88" y="-57.2" font-family="Times New Roman,serif" font-size="14.00">Да</text>
</g>
<!-- NEW200 -->
<g id="node14" class="node">
<title>NEW200</title>
<polygon fill="none" stroke="black" points="492,-36 420,-36 420,0 492,0 492,-36"/>
<text xml:space="preserve" text-anchor="middle" x="456" y="-14.5" font-family="GOST Type A,Arial" font-size="10.00">200 New</text>
</g>
<!-- ROTATE&#45;&gt;NEW200 -->
<g id="edge14" class="edge">
<title>ROTATE&#45;&gt;NEW200</title>
<path fill="none" stroke="black" d="M384.28,-18C392.28,-18 400.28,-18 408.27,-18"/>
<polygon fill="black" stroke="black" points="408.07,-21.5 418.07,-18 408.07,-14.5 408.07,-21.5"/>
</g>
<!-- NEW200&#45;&gt;NEW200 -->
</g>
</svg>
