<?xml version="1.0" encoding="UTF-8" standalone="no"?>
<!DOCTYPE svg PUBLIC "-//W3C//DTD SVG 1.1//EN"
 "http://www.w3.org/Graphics/SVG/1.1/DTD/svg11.dtd">
<!-- Generated by graphviz version 14.0.2 (20251019.1705)
 -->
<!-- Title: login_refresh_flow Pages: 1 -->
<svg width="238pt" height="894pt"
 viewBox="0.00 0.00 238.00 894.00" xmlns="http://www.w3.org/2000/svg" xmlns:xlink="http://www.w3.org/1999/xlink">
<g id="graph0" class="graph" transform="scale(1 1) rotate(0) translate(4 889.5)">
<title>login_refresh_flow</title>
<polygon fill="white" stroke="none" points="-4,4 -4,-889.5 234,-889.5 234,4 -4,4"/>
<!-- LOGIN -->
<g id="node1" class="node">
<title>LOGIN</title>
<polygon fill="none" stroke="black" points="88,-885.5 16,-885.5 16,-849.5 88,-849.5 88,-885.5"/>
<text xml:space="preserve" text-anchor="middle" x="52" y="-870" font-family="GOST Type A,Arial" font-size="10.00">UI</text>
<text xml:space="preserve" text-anchor="middle" x="52" y="-858" font-family="GOST Type A,Arial" font-size="10.00">Логин</text>
</g>
<!-- POSTL -->
<g id="node2" class="node">
<title>POSTL</title>
<polygon fill="none" stroke="black" points="88,-812.5 16,-812.5 16,-776.5 88,-776.5 88,-812.5"/>
<text xml:space="preserve" text-anchor="middle" x="52" y="-791" font-family="GOST Type A,Arial" font-size="10.00">POST /login</text>
</g>
<!-- LOGIN&#45;&gt;POSTL -->
<g id="edge1" class="edge">
<title>LOGIN&#45;&gt;POSTL</title>
<path fill="none" stroke="black" d="M52,-849.31C52,-841.73 52,-832.6 52,-824.04"/>
<polygon fill="black" stroke="black" points="55.5,-824.04 52,-814.04 48.5,-824.04 55.5,-824.04"/>
</g>
<!-- DECUSR -->
<g id="node3" class="node">
<title>DECUSR</title>
<polygon fill="none" stroke="black" points="52,-739.5 16,-721.5 52,-703.5 88,-721.5 52,-739.5"/>
<text xml:space="preserve" text-anchor="middle" x="52" y="-724" font-family="GOST Type A,Arial" font-size="10.00">Есть</text>
<text xml:space="preserve" text-anchor="middle" x="52" y="-712" font-family="GOST Type A,Arial" font-size="10.00">пользователь?</text>
</g>
<!-- POSTL&#45;&gt;DECUSR -->
<g id="edge2" class="edge">
<title>POSTL&#45;&gt;DECUSR</title>
<path fill="none" stroke="black" d="M52,-776.31C52,-768.84 52,-759.87 52,-751.42"/>
<polygon fill="black" stroke="black" points="55.5,-751.54 52,-741.54 48.5,-751.54 55.5,-751.54"/>
</g>
<!-- ERR401 -->
<g id="node4" class="node">
<title>ERR401</title>
<polygon fill="none" stroke="black" points="72,-562.5 0,-562.5 0,-526.5 72,-526.5 72,-562.5"/>
<text xml:space="preserve" text-anchor="middle" x="36" y="-541" font-family="GOST Type A,Arial" font-size="10.00">401</text>
</g>
<!-- DECUSR&#45;&gt;ERR401 -->
<g id="edge3" class="edge">
<title>DECUSR&#45;&gt;ERR401</title>
<path fill="none" stroke="black" d="M50.35,-703.93C48.95,-689.86 46.92,-669.11 45.25,-651 42.85,-624.98 40.26,-595.34 38.44,-574.11"/>
<polygon fill="black" stroke="black" points="41.93,-573.85 37.59,-564.19 34.95,-574.45 41.93,-573.85"/>
<text xml:space="preserve" text-anchor="middle" x="56.12" y="-627.95" font-family="Times New Roman,serif" font-size="14.00">Нет</text>
</g>
<!-- DECPASS -->
<g id="node5" class="node">
<title>DECPASS</title>
<polygon fill="none" stroke="black" points="112,-651 76,-633 112,-615 148,-633 112,-651"/>
<text xml:space="preserve" text-anchor="middle" x="112" y="-635.5" font-family="GOST Type A,Arial" font-size="10.00">Пароль</text>
<text xml:space="preserve" text-anchor="middle" x="112" y="-623.5" font-family="GOST Type A,Arial" font-size="10.00">верен?</text>
</g>
<!-- DECUSR&#45;&gt;DECPASS -->
<g id="edge4" class="edge">
<title>DECUSR&#45;&gt;DECPASS</title>
<path fill="none" stroke="black" d="M60.85,-707.74C70.25,-694.19 85.27,-672.53 96.61,-656.19"/>
<polygon fill="black" stroke="black" points="99.42,-658.27 102.25,-648.06 93.67,-654.28 99.42,-658.27"/>
<text xml:space="preserve" text-anchor="middle" x="95.25" y="-672.2" font-family="Times New Roman,serif" font-size="14.00">Да</text>
</g>
<!-- DECPASS&#45;&gt;ERR401 -->
<g id="edge5" class="edge">
<title>DECPASS&#45;&gt;ERR401</title>
<path fill="none" stroke="black" d="M101.43,-619.97C90.42,-607.44 72.83,-587.41 58.65,-571.28"/>
<polygon fill="black" stroke="black" points="61.43,-569.14 52.2,-563.93 56.17,-573.76 61.43,-569.14"/>
<text xml:space="preserve" text-anchor="middle" x="91.68" y="-583.7" font-family="Times New Roman,serif" font-size="14.00">Нет</text>
</g>
<!-- ISSUE -->
<g id="node6" class="node">
<title>ISSUE</title>
<polygon fill="none" stroke="black" points="162,-562.5 90,-562.5 90,-526.5 162,-526.5 162,-562.5"/>
<text xml:space="preserve" text-anchor="middle" x="126" y="-547" font-family="GOST Type A,Arial" font-size="10.00">Токены</text>
<text xml:space="preserve" text-anchor="middle" x="126" y="-535" font-family="GOST Type A,Arial" font-size="10.00">выдать</text>
</g>
<!-- DECPASS&#45;&gt;ISSUE -->
<g id="edge6" class="edge">
<title>DECPASS&#45;&gt;ISSUE</title>
<path fill="none" stroke="black" d="M114.57,-616.13C116.48,-604.32 119.14,-587.88 121.41,-573.83"/>
<polygon fill="black" stroke="black" points="124.82,-574.67 122.97,-564.24 117.91,-573.55 124.82,-574.67"/>
<text xml:space="preserve" text-anchor="middle" x="128.13" y="-583.7" font-family="Times New Roman,serif" font-size="14.00">Да</text>
</g>
<!-- OK200 -->
<g id="node7" class="node">
<title>OK200</title>
<polygon fill="none" stroke="black" points="162,-489.5 90,-489.5 90,-453.5 162,-453.5 162,-489.5"/>
<text xml:space="preserve" text-anchor="middle" x="126" y="-468" font-family="GOST Type A,Arial" font-size="10.00">200 Tokens</text>
</g>
<!-- ISSUE&#45;&gt;OK200 -->
<g id="edge7" class="edge">
<title>ISSUE&#45;&gt;OK200</title>
<path fill="none" stroke="black" d="M126,-526.31C126,-518.73 126,-509.6 126,-501.04"/>
<polygon fill="black" stroke="black" points="129.5,-501.04 126,-491.04 122.5,-501.04 129.5,-501.04"/>
</g>
<!-- STORE -->
<g id="node8" class="node">
<title>STORE</title>
<polygon fill="none" stroke="black" points="162,-416.5 90,-416.5 90,-380.5 162,-380.5 162,-416.5"/>
<text xml:space="preserve" text-anchor="middle" x="126" y="-401" font-family="GOST Type A,Arial" font-size="10.00">Store</text>
<text xml:space="preserve" text-anchor="middle" x="126" y="-389" font-family="GOST Type A,Arial" font-size="10.00">refresh</text>
</g>
<!-- OK200&#45;&gt;STORE -->
<g id="edge8" class="edge">
<title>OK200&#45;&gt;STORE</title>
<path fill="none" stroke="black" d="M126,-453.31C126,-445.73 126,-436.6 126,-428.04"/>
<polygon fill="black" stroke="black" points="129.5,-428.04 126,-418.04 122.5,-428.04 129.5,-428.04"/>
</g>
<!-- EXPA -->
<g id="node9" class="node">
<title>EXPA</title>
<polygon fill="none" stroke="black" points="162,-343.5 90,-343.5 90,-307.5 162,-307.5 162,-343.5"/>
<text xml:space="preserve" text-anchor="middle" x="126" y="-328" font-family="GOST Type A,Arial" font-size="10.00">Access</text>
<text xml:space="preserve" text-anchor="middle" x="126" y="-316" font-family="GOST Type A,Arial" font-size="10.00">истек</text>
</g>
<!-- STORE&#45;&gt;EXPA -->
<g id="edge9" class="edge">
<title>STORE&#45;&gt;EXPA</title>
<path fill="none" stroke="black" d="M126,-380.31C126,-372.73 126,-363.6 126,-355.04"/>
<polygon fill="black" stroke="black" points="129.5,-355.04 126,-345.04 122.5,-355.04 129.5,-355.04"/>
</g>
<!-- POSTR -->
<g id="node10" class="node">
<title>POSTR</title>
<polygon fill="none" stroke="black" points="162,-270.5 90,-270.5 90,-234.5 162,-234.5 162,-270.5"/>
<text xml:space="preserve" text-anchor="middle" x="126" y="-249" font-family="GOST Type A,Arial" font-size="10.00">POST /refresh</text>
</g>
<!-- EXPA&#45;&gt;POSTR -->
<g id="edge10" class="edge">
<title>EXPA&#45;&gt;POSTR</title>
<path fill="none" stroke="black" d="M126,-307.31C126,-299.73 126,-290.6 126,-282.04"/>
<polygon fill="black" stroke="black" points="129.5,-282.04 126,-272.04 122.5,-282.04 129.5,-282.04"/>
</g>
<!-- DECRF -->
<g id="node11" class="node">
<title>DECRF</title>
<polygon fill="none" stroke="black" points="126,-197.5 90,-179.5 126,-161.5 162,-179.5 126,-197.5"/>
<text xml:space="preserve" text-anchor="middle" x="126" y="-182" font-family="GOST Type A,Arial" font-size="10.00">Refresh</text>
<text xml:space="preserve" text-anchor="middle" x="126" y="-170" font-family="GOST Type A,Arial" font-size="10.00">валиден?</text>
</g>
<!-- POSTR&#45;&gt;DECRF -->
<g id="edge11" class="edge">
<title>POSTR&#45;&gt;DECRF</title>
<path fill="none" stroke="black" d="M126,-234.31C126,-226.84 126,-217.87 126,-209.42"/>
<polygon fill="black" stroke="black" points="129.5,-209.54 126,-199.54 122.5,-209.54 129.5,-209.54"/>
</g>
<!-- ERR401R -->
<g id="node12" class="node">
<title>ERR401R</title>
<polygon fill="none" stroke="black" points="140,-109 68,-109 68,-73 140,-73 140,-109"/>
<text xml:space="preserve" text-anchor="middle" x="104" y="-93.5" font-family="GOST Type A,Arial" font-size="10.00">401</text>
<text xml:space="preserve" text-anchor="middle" x="104" y="-81.5" font-family="GOST Type A,Arial" font-size="10.00">Login</text>
</g>
<!-- DECRF&#45;&gt;ERR401R -->
<g id="edge12" class="edge">
<title>DECRF&#45;&gt;ERR401R</title>
<path fill="none" stroke="black" d="M122.07,-163.04C119.04,-151.15 114.79,-134.41 111.16,-120.16"/>
<polygon fill="black" stroke="black" points="114.66,-119.71 108.8,-110.88 107.87,-121.43 114.66,-119.71"/>
<text xml:space="preserve" text-anchor="middle" x="127.85" y="-130.2" font-family="Times New Roman,serif" font-size="14.00">Нет</text>
</g>
<!-- ROTATE -->
<g id="node13" class="node">
<title>ROTATE</title>
<polygon fill="none" stroke="black" points="230,-109 158,-109 158,-73 230,-73 230,-109"/>
<text xml:space="preserve" text-anchor="middle" x="194" y="-87.5" font-family="GOST Type A,Arial" font-size="10.00">Ротация</text>
</g>
<!-- DECRF&#45;&gt;ROTATE -->
<g id="edge13" class="edge">
<title>DECRF&#45;&gt;ROTATE</title>
<path fill="none" stroke="black" d="M135.74,-166.11C145.5,-153.69 160.83,-134.19 173.32,-118.31"/>
<polygon fill="black" stroke="black" points="175.91,-120.67 179.34,-110.65 170.41,-116.35 175.91,-120.67"/>
<text xml:space="preserve" text-anchor="middle" x="173.97" y="-130.2" font-family="Times New Roman,serif" font-size="14.00">Да</text>
</g>
<!-- NEW200 -->
<g id="node14" class="node">
<title>NEW200</title>
<polygon fill="none" stroke="black" points="230,-36 158,-36 158,0 230,0 230,-36"/>
<text xml:space="preserve" text-anchor="middle" x="194" y="-14.5" font-family="GOST Type A,Arial" font-size="10.00">200 New</text>
</g>
<!-- ROTATE&#45;&gt;NEW200 -->
<g id="edge14" class="edge">
<title>ROTATE&#45;&gt;NEW200</title>
<path fill="none" stroke="black" d="M194,-72.81C194,-65.23 194,-56.1 194,-47.54"/>
<polygon fill="black" stroke="black" points="197.5,-47.54 194,-37.54 190.5,-47.54 197.5,-47.54"/>
</g>
</g>
</svg>
