<?xml version="1.0" encoding="UTF-8" standalone="no"?>
<!DOCTYPE svg PUBLIC "-//W3C//DTD SVG 1.1//EN"
 "http://www.w3.org/Graphics/SVG/1.1/DTD/svg11.dtd">
<!-- Generated by graphviz version 14.0.2 (20251019.1705)
 -->
<!-- Title: login_refresh_flow Pages: 1 -->
<svg width="542pt" height="440pt"
 viewBox="0.00 0.00 542.00 440.00" xmlns="http://www.w3.org/2000/svg" xmlns:xlink="http://www.w3.org/1999/xlink">
<g id="graph0" class="graph" transform="scale(1 1) rotate(0) translate(4 436)">
<title>login_refresh_flow</title>
<polygon fill="white" stroke="none" points="-4,4 -4,-436 538,-436 538,4 -4,4"/>
<!-- LOGIN -->
<g id="node1" class="node">
<title>LOGIN</title>
<polygon fill="none" stroke="black" points="90,-432 18,-432 18,-396 90,-396 90,-432"/>
<text xml:space="preserve" text-anchor="middle" x="54" y="-416.5" font-family="GOST Type A,Arial" font-size="10.00">UI</text>
<text xml:space="preserve" text-anchor="middle" x="54" y="-404.5" font-family="GOST Type A,Arial" font-size="10.00">Логин</text>
</g>
<!-- POSTL -->
<g id="node2" class="node">
<title>POSTL</title>
<polygon fill="none" stroke="black" points="198,-432 126,-432 126,-396 198,-396 198,-432"/>
<text xml:space="preserve" text-anchor="middle" x="162" y="-410.5" font-family="GOST Type A,Arial" font-size="10.00">POST /login</text>
</g>
<!-- LOGIN&#45;&gt;POSTL -->
<g id="edge1" class="edge">
<title>LOGIN&#45;&gt;POSTL</title>
<path fill="none" stroke="black" d="M90.28,-414C98.28,-414 106.28,-414 114.27,-414"/>
<polygon fill="black" stroke="black" points="114.07,-417.5 124.07,-414 114.07,-410.5 114.07,-417.5"/>
</g>
<!-- CHKCRED -->
<g id="node3" class="node">
<title>CHKCRED</title>
<polygon fill="none" stroke="black" points="36,-359 0,-341 36,-323 72,-341 36,-359"/>
<text xml:space="preserve" text-anchor="middle" x="36" y="-343.5" font-family="GOST Type A,Arial" font-size="10.00">Email +</text>
<text xml:space="preserve" text-anchor="middle" x="36" y="-331.5" font-family="GOST Type A,Arial" font-size="10.00">пароль OK?</text>
</g>
<!-- POSTL&#45;&gt;CHKCRED -->
<g id="edge2" class="edge">
<title>POSTL&#45;&gt;CHKCRED</title>
<path fill="none" stroke="black" d="M131.18,-395.63C110.06,-383.73 82.34,-368.11 62.27,-356.8"/>
<polygon fill="black" stroke="black" points="64.02,-353.77 53.59,-351.91 60.58,-359.87 64.02,-353.77"/>
</g>
<!-- GENTKN -->
<g id="node5" class="node">
<title>GENTKN</title>
<polygon fill="none" stroke="black" points="184,-270.5 112,-270.5 112,-234.5 184,-234.5 184,-270.5"/>
<text xml:space="preserve" text-anchor="middle" x="148" y="-255" font-family="GOST Type A,Arial" font-size="10.00">Генерация</text>
<text xml:space="preserve" text-anchor="middle" x="148" y="-243" font-family="GOST Type A,Arial" font-size="10.00">токенов</text>
</g>
<!-- POSTL&#45;&gt;GENTKN -->
<!-- ERRBAD -->
<g id="node4" class="node">
<title>ERRBAD</title>
<polygon fill="none" stroke="black" points="184,-359 112,-359 112,-323 184,-323 184,-359"/>
<text xml:space="preserve" text-anchor="middle" x="148" y="-343.5" font-family="GOST Type A,Arial" font-size="10.00">400</text>
<text xml:space="preserve" text-anchor="middle" x="148" y="-331.5" font-family="GOST Type A,Arial" font-size="10.00">Bad Request</text>
</g>
<!-- CHKCRED&#45;&gt;ERRBAD -->
<g id="edge3" class="edge">
<title>CHKCRED&#45;&gt;ERRBAD</title>
<path fill="none" stroke="black" d="M72.98,-341C81.76,-341 91.25,-341 100.43,-341"/>
<polygon fill="black" stroke="black" points="100.3,-344.5 110.3,-341 100.3,-337.5 100.3,-344.5"/>
<text xml:space="preserve" text-anchor="middle" x="92" y="-347.2" font-family="Times New Roman,serif" font-size="14.00">Нет</text>
</g>
<!-- CHKCRED&#45;&gt;GENTKN -->
<g id="edge4" class="edge">
<title>CHKCRED&#45;&gt;GENTKN</title>
<path fill="none" stroke="black" d="M49.73,-329.39C66.29,-316.6 94.64,-294.71 116.65,-277.71"/>
<polygon fill="black" stroke="black" points="118.66,-280.58 124.44,-271.7 114.39,-275.04 118.66,-280.58"/>
<text xml:space="preserve" text-anchor="middle" x="109.91" y="-291.7" font-family="Times New Roman,serif" font-size="14.00">Да</text>
</g>
<!-- ERRBAD&#45;&gt;GENTKN -->
<!-- OKLOGIN -->
<g id="node6" class="node">
<title>OKLOGIN</title>
<polygon fill="none" stroke="black" points="292,-270.5 220,-270.5 220,-234.5 292,-234.5 292,-270.5"/>
<text xml:space="preserve" text-anchor="middle" x="256" y="-255" font-family="GOST Type A,Arial" font-size="10.00">200</text>
<text xml:space="preserve" text-anchor="middle" x="256" y="-243" font-family="GOST Type A,Arial" font-size="10.00">Tokens</text>
</g>
<!-- GENTKN&#45;&gt;OKLOGIN -->
<g id="edge5" class="edge">
<title>GENTKN&#45;&gt;OKLOGIN</title>
<path fill="none" stroke="black" d="M184.28,-252.5C192.28,-252.5 200.28,-252.5 208.27,-252.5"/>
<polygon fill="black" stroke="black" points="208.07,-256 218.07,-252.5 208.07,-249 208.07,-256"/>
</g>
<!-- CLNT -->
<g id="node7" class="node">
<title>CLNT</title>
<polygon fill="none" stroke="black" points="250,-197.5 178,-197.5 178,-161.5 250,-161.5 250,-197.5"/>
<text xml:space="preserve" text-anchor="middle" x="214" y="-182" font-family="GOST Type A,Arial" font-size="10.00">Клиент</text>
<text xml:space="preserve" text-anchor="middle" x="214" y="-170" font-family="GOST Type A,Arial" font-size="10.00">Access истек</text>
</g>
<!-- OKLOGIN&#45;&gt;CLNT -->
<g id="edge6" class="edge">
<title>OKLOGIN&#45;&gt;CLNT</title>
<path fill="none" stroke="black" d="M245.83,-234.31C241.04,-226.2 235.2,-216.34 229.84,-207.28"/>
<polygon fill="black" stroke="black" points="232.95,-205.66 224.84,-198.83 226.92,-209.22 232.95,-205.66"/>
</g>
<!-- CHKRF -->
<g id="node9" class="node">
<title>CHKRF</title>
<polygon fill="none" stroke="black" points="278,-124.5 242,-106.5 278,-88.5 314,-106.5 278,-124.5"/>
<text xml:space="preserve" text-anchor="middle" x="278" y="-109" font-family="GOST Type A,Arial" font-size="10.00">Refresh</text>
<text xml:space="preserve" text-anchor="middle" x="278" y="-97" font-family="GOST Type A,Arial" font-size="10.00">валиден?</text>
</g>
<!-- OKLOGIN&#45;&gt;CHKRF -->
<!-- POSTR -->
<g id="node8" class="node">
<title>POSTR</title>
<polygon fill="none" stroke="black" points="378,-197.5 306,-197.5 306,-161.5 378,-161.5 378,-197.5"/>
<text xml:space="preserve" text-anchor="middle" x="342" y="-176" font-family="GOST Type A,Arial" font-size="10.00">POST /refresh</text>
</g>
<!-- CLNT&#45;&gt;POSTR -->
<g id="edge7" class="edge">
<title>CLNT&#45;&gt;POSTR</title>
<path fill="none" stroke="black" d="M250.5,-179.5C265.12,-179.5 279.74,-179.5 294.36,-179.5"/>
<polygon fill="black" stroke="black" points="294.03,-183 304.03,-179.5 294.03,-176 294.03,-183"/>
</g>
<!-- POSTR&#45;&gt;CHKRF -->
<g id="edge8" class="edge">
<title>POSTR&#45;&gt;CHKRF</title>
<path fill="none" stroke="black" d="M326.51,-161.31C317.37,-151.18 305.77,-138.31 296.2,-127.69"/>
<polygon fill="black" stroke="black" points="299.05,-125.63 289.76,-120.54 293.85,-130.31 299.05,-125.63"/>
</g>
<!-- NEWTKN -->
<g id="node11" class="node">
<title>NEWTKN</title>
<polygon fill="none" stroke="black" points="426,-36 354,-36 354,0 426,0 426,-36"/>
<text xml:space="preserve" text-anchor="middle" x="390" y="-20.5" font-family="GOST Type A,Arial" font-size="10.00">Новые</text>
<text xml:space="preserve" text-anchor="middle" x="390" y="-8.5" font-family="GOST Type A,Arial" font-size="10.00">токены</text>
</g>
<!-- POSTR&#45;&gt;NEWTKN -->
<!-- ERR401 -->
<g id="node10" class="node">
<title>ERR401</title>
<polygon fill="none" stroke="black" points="426,-124.5 354,-124.5 354,-88.5 426,-88.5 426,-124.5"/>
<text xml:space="preserve" text-anchor="middle" x="390" y="-109" font-family="GOST Type A,Arial" font-size="10.00">401</text>
<text xml:space="preserve" text-anchor="middle" x="390" y="-97" font-family="GOST Type A,Arial" font-size="10.00">Unauthorized</text>
</g>
<!-- CHKRF&#45;&gt;ERR401 -->
<g id="edge9" class="edge">
<title>CHKRF&#45;&gt;ERR401</title>
<path fill="none" stroke="black" d="M314.98,-106.5C323.76,-106.5 333.25,-106.5 342.43,-106.5"/>
<polygon fill="black" stroke="black" points="342.3,-110 352.3,-106.5 342.3,-103 342.3,-110"/>
<text xml:space="preserve" text-anchor="middle" x="334" y="-112.7" font-family="Times New Roman,serif" font-size="14.00">Нет</text>
</g>
<!-- CHKRF&#45;&gt;NEWTKN -->
<g id="edge10" class="edge">
<title>CHKRF&#45;&gt;NEWTKN</title>
<path fill="none" stroke="black" d="M291.73,-94.89C308.29,-82.1 336.64,-60.21 358.65,-43.21"/>
<polygon fill="black" stroke="black" points="360.66,-46.08 366.44,-37.2 356.39,-40.54 360.66,-46.08"/>
<text xml:space="preserve" text-anchor="middle" x="351.91" y="-57.2" font-family="Times New Roman,serif" font-size="14.00">Да</text>
</g>
<!-- ERR401&#45;&gt;NEWTKN -->
<!-- OKREFRSH -->
<g id="node12" class="node">
<title>OKREFRSH</title>
<polygon fill="none" stroke="black" points="534,-36 462,-36 462,0 534,0 534,-36"/>
<text xml:space="preserve" text-anchor="middle" x="498" y="-20.5" font-family="GOST Type A,Arial" font-size="10.00">200</text>
<text xml:space="preserve" text-anchor="middle" x="498" y="-8.5" font-family="GOST Type A,Arial" font-size="10.00">New Tokens</text>
</g>
<!-- NEWTKN&#45;&gt;OKREFRSH -->
<g id="edge11" class="edge">
<title>NEWTKN&#45;&gt;OKREFRSH</title>
<path fill="none" stroke="black" d="M426.28,-18C434.28,-18 442.28,-18 450.27,-18"/>
<polygon fill="black" stroke="black" points="450.07,-21.5 460.07,-18 450.07,-14.5 450.07,-21.5"/>
</g>
</g>
</svg>
